<svg width="272" height="43" viewBox="0 0 272 43" fill="none" xmlns="http://www.w3.org/2000/svg">
<path d="M0.461106 1.84237C-0.00412405 1.54475 -0.139997 0.926334 0.157626 0.461105C0.455249 -0.00412369 1.07366 -0.139996 1.53889 0.157627L0.461106 1.84237ZM272 1L266.634 11.2247L260.462 1.4656L272 1ZM1.53889 0.157627C2.37675 0.693626 3.2166 1.22479 4.05843 1.75108L2.99822 3.44695C2.15049 2.91697 1.30478 2.3821 0.461106 1.84237L1.53889 0.157627ZM9.14317 4.85627C10.8523 5.87548 12.5694 6.87478 14.2941 7.85396L13.3067 9.59321C11.5695 8.60696 9.84017 7.6005 8.11884 6.57405L9.14317 4.85627ZM19.5074 10.7396C21.2577 11.6838 23.0157 12.6074 24.7811 13.5103L23.8705 15.2909C22.092 14.3814 20.321 13.451 18.5578 12.4999L19.5074 10.7396ZM30.1159 16.164C31.906 17.0296 33.7035 17.8741 35.5083 18.697L34.6785 20.5167C32.86 19.6875 31.0488 18.8367 29.2452 17.9645L30.1159 16.164ZM40.9558 21.1064C42.7828 21.8895 44.617 22.6508 46.458 23.3899L45.7129 25.2459C43.8574 24.501 42.009 23.7338 40.1679 22.9446L40.9558 21.1064ZM52.0115 25.5445C53.872 26.2413 55.7394 26.9156 57.6134 27.5673L56.9566 29.4563C55.0675 28.7994 53.1853 28.1197 51.31 27.4174L52.0115 25.5445ZM63.2623 29.4562C65.1533 30.0634 67.0508 30.6476 68.9546 31.2086L68.3893 33.127C66.47 32.5615 64.5571 31.9725 62.6509 31.3604L63.2623 29.4562ZM74.6874 32.8222C76.6047 33.3368 78.5283 33.8278 80.4578 34.2952L79.9871 36.239C78.0415 35.7677 76.1021 35.2726 74.169 34.7539L74.6874 32.8222ZM86.2627 35.6254C88.2023 36.0447 90.1477 36.4402 92.0989 36.8115L91.725 38.7762C89.7575 38.4018 87.7958 38.0031 85.84 37.5803L86.2627 35.6254ZM97.9619 37.8516C99.919 38.1736 101.882 38.4715 103.85 38.7449L103.574 40.7258C101.59 40.4501 99.6107 40.1498 97.6372 39.8251L97.9619 37.8516ZM109.758 39.4902C111.728 39.7136 113.703 39.9125 115.682 40.0868L115.507 42.0791C113.511 41.9033 111.519 41.7027 109.533 41.4775L109.758 39.4902ZM121.62 40.5343C123.599 40.6584 125.582 40.7578 127.569 40.8325L127.494 42.8311C125.49 42.7558 123.49 42.6555 121.495 42.5303L121.62 40.5343ZM133.521 40.9814C134.513 40.9938 135.506 41 136.5 41V43C135.498 43 134.496 42.9937 133.496 42.9812L133.521 40.9814ZM136.5 41C137.494 41 138.487 40.9938 139.479 40.9814L139.504 42.9812C138.504 42.9937 137.502 43 136.5 43V41ZM145.431 40.8325C147.418 40.7578 149.401 40.6584 151.38 40.5343L151.505 42.5303C149.51 42.6555 147.51 42.7558 145.506 42.8311L145.431 40.8325ZM157.318 40.0868C159.297 39.9125 161.272 39.7136 163.242 39.4902L163.467 41.4775C161.481 41.7027 159.489 41.9033 157.493 42.0791L157.318 40.0868ZM169.15 38.7449C171.118 38.4715 173.081 38.1737 175.038 37.8516L175.363 39.8251C173.389 40.1498 171.41 40.4502 169.426 40.7258L169.15 38.7449ZM180.901 36.8115C182.852 36.4402 184.798 36.0447 186.737 35.6254L187.16 37.5803C185.204 38.0031 183.242 38.4018 181.275 38.7762L180.901 36.8115ZM192.542 34.2952C194.472 33.8278 196.395 33.3368 198.313 32.8222L198.831 34.7539C196.898 35.2726 194.958 35.7677 193.013 36.239L192.542 34.2952ZM204.045 31.2086C205.949 30.6476 207.847 30.0634 209.738 29.4562L210.349 31.3604C208.443 31.9725 206.53 32.5615 204.611 33.127L204.045 31.2086ZM215.387 27.5673C217.261 26.9156 219.128 26.2413 220.989 25.5445L221.69 27.4174C219.815 28.1197 217.932 28.7994 216.043 29.4563L215.387 27.5673ZM226.542 23.3899C228.383 22.6508 230.217 21.8895 232.044 21.1064L232.832 22.9446C230.991 23.7338 229.143 24.501 227.287 25.2459L226.542 23.3899ZM237.492 18.697C239.296 17.8741 241.094 17.0296 242.884 16.164L243.755 17.9645C241.951 18.8367 240.14 19.6875 238.322 20.5167L237.492 18.697ZM248.219 13.5103C249.984 12.6074 251.742 11.6838 253.493 10.7396L254.442 12.4999C252.679 13.451 250.908 14.3814 249.129 15.2909L248.219 13.5103ZM258.706 7.85397C260.431 6.87479 262.148 5.87549 263.857 4.85628L264.881 6.57405C263.16 7.60051 261.43 8.60697 259.693 9.59322L258.706 7.85397ZM0.461106 1.84237C-0.00412405 1.54475 -0.139997 0.926334 0.157626 0.461105C0.455249 -0.00412369 1.07366 -0.139996 1.53889 0.157627L0.461106 1.84237ZM272 1L266.634 11.2247L260.462 1.4656L272 1ZM1.53889 0.157627C2.37675 0.693626 3.2166 1.22479 4.05843 1.75108L2.99822 3.44695C2.15049 2.91697 1.30478 2.3821 0.461106 1.84237L1.53889 0.157627ZM9.14317 4.85627C10.8523 5.87548 12.5694 6.87478 14.2941 7.85396L13.3067 9.59321C11.5695 8.60696 9.84017 7.6005 8.11884 6.57405L9.14317 4.85627ZM19.5074 10.7396C21.2577 11.6838 23.0157 12.6074 24.7811 13.5103L23.8705 15.2909C22.092 14.3814 20.321 13.451 18.5578 12.4999L19.5074 10.7396ZM30.1159 16.164C31.906 17.0296 33.7035 17.8741 35.5083 18.697L34.6785 20.5167C32.86 19.6875 31.0488 18.8367 29.2452 17.9645L30.1159 16.164ZM40.9558 21.1064C42.7828 21.8895 44.617 22.6508 46.458 23.3899L45.7129 25.2459C43.8574 24.501 42.009 23.7338 40.1679 22.9446L40.9558 21.1064ZM52.0115 25.5445C53.872 26.2413 55.7394 26.9156 57.6134 27.5673L56.9566 29.4563C55.0675 28.7994 53.1853 28.1197 51.31 27.4174L52.0115 25.5445ZM63.2623 29.4562C65.1533 30.0634 67.0508 30.6476 68.9546 31.2086L68.3893 33.127C66.47 32.5615 64.5571 31.9725 62.6509 31.3604L63.2623 29.4562ZM74.6874 32.8222C76.6047 33.3368 78.5283 33.8278 80.4578 34.2952L79.9871 36.239C78.0415 35.7677 76.1021 35.2726 74.169 34.7539L74.6874 32.8222ZM86.2627 35.6254C88.2023 36.0447 90.1477 36.4402 92.0989 36.8115L91.725 38.7762C89.7575 38.4018 87.7958 38.0031 85.84 37.5803L86.2627 35.6254ZM97.9619 37.8516C99.919 38.1736 101.882 38.4715 103.85 38.7449L103.574 40.7258C101.59 40.4501 99.6107 40.1498 97.6372 39.8251L97.9619 37.8516ZM109.758 39.4902C111.728 39.7136 113.703 39.9125 115.682 40.0868L115.507 42.0791C113.511 41.9033 111.519 41.7027 109.533 41.4775L109.758 39.4902ZM121.62 40.5343C123.599 40.6584 125.582 40.7578 127.569 40.8325L127.494 42.8311C125.49 42.7558 123.49 42.6555 121.495 42.5303L121.62 40.5343ZM133.521 40.9814C134.513 40.9938 135.506 41 136.5 41V43C135.498 43 134.496 42.9937 133.496 42.9812L133.521 40.9814ZM136.5 41C137.494 41 138.487 40.9938 139.479 40.9814L139.504 42.9812C138.504 42.9937 137.502 43 136.5 43V41ZM145.431 40.8325C147.418 40.7578 149.401 40.6584 151.38 40.5343L151.505 42.5303C149.51 42.6555 147.51 42.7558 145.506 42.8311L145.431 40.8325ZM157.318 40.0868C159.297 39.9125 161.272 39.7136 163.242 39.4902L163.467 41.4775C161.481 41.7027 159.489 41.9033 157.493 42.0791L157.318 40.0868ZM169.15 38.7449C171.118 38.4715 173.081 38.1737 175.038 37.8516L175.363 39.8251C173.389 40.1498 171.41 40.4502 169.426 40.7258L169.15 38.7449ZM180.901 36.8115C182.852 36.4402 184.798 36.0447 186.737 35.6254L187.16 37.5803C185.204 38.0031 183.242 38.4018 181.275 38.7762L180.901 36.8115ZM192.542 34.2952C194.472 33.8278 196.395 33.3368 198.313 32.8222L198.831 34.7539C196.898 35.2726 194.958 35.7677 193.013 36.239L192.542 34.2952ZM204.045 31.2086C205.949 30.6476 207.847 30.0634 209.738 29.4562L210.349 31.3604C208.443 31.9725 206.53 32.5615 204.611 33.127L204.045 31.2086ZM215.387 27.5673C217.261 26.9156 219.128 26.2413 220.989 25.5445L221.69 27.4174C219.815 28.1197 217.932 28.7994 216.043 29.4563L215.387 27.5673ZM226.542 23.3899C228.383 22.6508 230.217 21.8895 232.044 21.1064L232.832 22.9446C230.991 23.7338 229.143 24.501 227.287 25.2459L226.542 23.3899ZM237.492 18.697C239.296 17.8741 241.094 17.0296 242.884 16.164L243.755 17.9645C241.951 18.8367 240.14 19.6875 238.322 20.5167L237.492 18.697ZM248.219 13.5103C249.984 12.6074 251.742 11.6838 253.493 10.7396L254.442 12.4999C252.679 13.451 250.908 14.3814 249.129 15.2909L248.219 13.5103ZM258.706 7.85397C260.431 6.87479 262.148 5.87549 263.857 4.85628L264.881 6.57405C263.16 7.60051 261.43 8.60697 259.693 9.59322L258.706 7.85397Z" fill="#30023B"/>
</svg>
