<svg width="353" height="119" viewBox="0 0 353 119" fill="none" xmlns="http://www.w3.org/2000/svg">
<g filter="url(#filter0_dd_10687_27081)">
<g clip-path="url(#clip0_10687_27081)">
<path d="M13 21.9577C13 19.2197 15.2197 17 17.9577 17H310.042C312.78 17 315 19.2197 315 21.9577V80.0423C315 82.7803 312.78 85 310.042 85H17.9577C15.2196 85 13 82.7803 13 80.0423V21.9577Z" fill="white"/>
<path d="M119.043 51.417C119.043 50.117 118.927 48.867 118.71 47.667H101.443V54.767H111.31C110.877 57.0503 109.577 58.9837 107.627 60.2837V64.9003H113.577C117.043 61.7003 119.043 57.0003 119.043 51.417Z" fill="#4285F4"/>
<path d="M101.443 69.3333C106.393 69.3333 110.543 67.7 113.576 64.9L107.626 60.2833C105.993 61.3833 103.91 62.05 101.443 62.05C96.6762 62.05 92.6262 58.8333 91.1762 54.5H85.0762V59.2333C88.0928 65.2167 94.2762 69.3333 101.443 69.3333Z" fill="#34A853"/>
<path d="M91.1819 54.4832C90.8152 53.3832 90.5986 52.2165 90.5986 50.9999C90.5986 49.7832 90.8152 48.6165 91.1819 47.5165V42.7832H85.0819C83.8319 45.2499 83.1152 48.0332 83.1152 50.9999C83.1152 53.9665 83.8319 56.7499 85.0819 59.2165L89.8319 55.5165L91.1819 54.4832Z" fill="#FBBC05"/>
<path d="M101.443 39.967C104.143 39.967 106.543 40.9003 108.46 42.7003L113.71 37.4503C110.526 34.4837 106.393 32.667 101.443 32.667C94.2762 32.667 88.0928 36.7837 85.0762 42.7837L91.1762 47.517C92.6262 43.1837 96.6762 39.967 101.443 39.967Z" fill="#EA4335"/>
<path d="M133.333 45.0042C132.773 45.0042 132.247 44.9062 131.755 44.7102C131.267 44.5102 130.837 44.2182 130.465 43.8342C130.097 43.4502 129.809 42.9802 129.601 42.4242C129.393 41.8642 129.289 41.2242 129.289 40.5042C129.289 39.5602 129.465 38.7542 129.817 38.0862C130.169 37.4142 130.651 36.9002 131.263 36.5442C131.875 36.1842 132.565 36.0042 133.333 36.0042C134.397 36.0042 135.239 36.2522 135.859 36.7482C136.483 37.2402 136.905 37.9322 137.125 38.8242L135.649 39.0582C135.485 38.5462 135.217 38.1382 134.845 37.8342C134.473 37.5262 133.999 37.3722 133.423 37.3722C132.843 37.3642 132.361 37.4902 131.977 37.7502C131.593 38.0102 131.303 38.3762 131.107 38.8482C130.915 39.3202 130.819 39.8722 130.819 40.5042C130.819 41.1362 130.915 41.6862 131.107 42.1542C131.299 42.6182 131.587 42.9802 131.971 43.2402C132.359 43.5002 132.843 43.6342 133.423 43.6422C133.859 43.6462 134.241 43.5682 134.569 43.4082C134.897 43.2442 135.165 42.9982 135.373 42.6702C135.581 42.3382 135.721 41.9242 135.793 41.4282H134.269V40.2942H137.329C137.337 40.3582 137.343 40.4522 137.347 40.5762C137.351 40.7002 137.353 40.7742 137.353 40.7982C137.353 41.6142 137.191 42.3402 136.867 42.9762C136.547 43.6082 136.087 44.1042 135.487 44.4642C134.887 44.8242 134.169 45.0042 133.333 45.0042ZM141.221 45.0042C140.573 45.0042 140.007 44.8582 139.523 44.5662C139.039 44.2742 138.663 43.8722 138.395 43.3602C138.131 42.8442 137.999 42.2522 137.999 41.5842C137.999 40.9042 138.135 40.3082 138.407 39.7962C138.679 39.2842 139.057 38.8842 139.541 38.5962C140.025 38.3082 140.585 38.1642 141.221 38.1642C141.873 38.1642 142.441 38.3102 142.925 38.6022C143.409 38.8942 143.785 39.2982 144.053 39.8142C144.321 40.3262 144.455 40.9162 144.455 41.5842C144.455 42.2562 144.319 42.8502 144.047 43.3662C143.779 43.8782 143.403 44.2802 142.919 44.5722C142.435 44.8602 141.869 45.0042 141.221 45.0042ZM141.221 43.6482C141.797 43.6482 142.225 43.4562 142.505 43.0722C142.785 42.6882 142.925 42.1922 142.925 41.5842C142.925 40.9562 142.783 40.4562 142.499 40.0842C142.215 39.7082 141.789 39.5202 141.221 39.5202C140.833 39.5202 140.513 39.6082 140.261 39.7842C140.013 39.9562 139.829 40.1982 139.709 40.5102C139.589 40.8182 139.529 41.1762 139.529 41.5842C139.529 42.2122 139.671 42.7142 139.955 43.0902C140.243 43.4622 140.665 43.6482 141.221 43.6482ZM148.439 45.0042C147.791 45.0042 147.225 44.8582 146.741 44.5662C146.257 44.2742 145.881 43.8722 145.613 43.3602C145.349 42.8442 145.217 42.2522 145.217 41.5842C145.217 40.9042 145.353 40.3082 145.625 39.7962C145.897 39.2842 146.275 38.8842 146.759 38.5962C147.243 38.3082 147.803 38.1642 148.439 38.1642C149.091 38.1642 149.659 38.3102 150.143 38.6022C150.627 38.8942 151.003 39.2982 151.271 39.8142C151.539 40.3262 151.673 40.9162 151.673 41.5842C151.673 42.2562 151.537 42.8502 151.265 43.3662C150.997 43.8782 150.621 44.2802 150.137 44.5722C149.653 44.8602 149.087 45.0042 148.439 45.0042ZM148.439 43.6482C149.015 43.6482 149.443 43.4562 149.723 43.0722C150.003 42.6882 150.143 42.1922 150.143 41.5842C150.143 40.9562 150.001 40.4562 149.717 40.0842C149.433 39.7082 149.007 39.5202 148.439 39.5202C148.051 39.5202 147.731 39.6082 147.479 39.7842C147.231 39.9562 147.047 40.1982 146.927 40.5102C146.807 40.8182 146.747 41.1762 146.747 41.5842C146.747 42.2122 146.889 42.7142 147.173 43.0902C147.461 43.4622 147.883 43.6482 148.439 43.6482ZM155.518 47.8842C155.158 47.8842 154.812 47.8282 154.48 47.7162C154.152 47.6042 153.856 47.4422 153.592 47.2302C153.328 47.0222 153.112 46.7702 152.944 46.4742L154.276 45.8142C154.4 46.0502 154.574 46.2242 154.798 46.3362C155.026 46.4522 155.268 46.5102 155.524 46.5102C155.824 46.5102 156.092 46.4562 156.328 46.3482C156.564 46.2442 156.746 46.0882 156.874 45.8802C157.006 45.6762 157.068 45.4202 157.06 45.1122V43.2702H157.24V38.3442H158.506V45.1362C158.506 45.3002 158.498 45.4562 158.482 45.6042C158.47 45.7562 158.448 45.9042 158.416 46.0482C158.32 46.4682 158.136 46.8122 157.864 47.0802C157.592 47.3522 157.254 47.5542 156.85 47.6862C156.45 47.8182 156.006 47.8842 155.518 47.8842ZM155.392 45.0042C154.796 45.0042 154.276 44.8542 153.832 44.5542C153.388 44.2542 153.044 43.8462 152.8 43.3302C152.556 42.8142 152.434 42.2322 152.434 41.5842C152.434 40.9282 152.556 40.3442 152.8 39.8322C153.048 39.3162 153.398 38.9102 153.85 38.6142C154.302 38.3142 154.834 38.1642 155.446 38.1642C156.062 38.1642 156.578 38.3142 156.994 38.6142C157.414 38.9102 157.732 39.3162 157.948 39.8322C158.164 40.3482 158.272 40.9322 158.272 41.5842C158.272 42.2282 158.164 42.8102 157.948 43.3302C157.732 43.8462 157.41 44.2542 156.982 44.5542C156.554 44.8542 156.024 45.0042 155.392 45.0042ZM155.614 43.7082C156.002 43.7082 156.314 43.6202 156.55 43.4442C156.79 43.2642 156.964 43.0142 157.072 42.6942C157.184 42.3742 157.24 42.0042 157.24 41.5842C157.24 41.1602 157.184 40.7902 157.072 40.4742C156.964 40.1542 156.794 39.9062 156.562 39.7302C156.33 39.5502 156.03 39.4602 155.662 39.4602C155.274 39.4602 154.954 39.5562 154.702 39.7482C154.45 39.9362 154.264 40.1922 154.144 40.5162C154.024 40.8362 153.964 41.1922 153.964 41.5842C153.964 41.9802 154.022 42.3402 154.138 42.6642C154.258 42.9842 154.44 43.2382 154.684 43.4262C154.928 43.6142 155.238 43.7082 155.614 43.7082ZM160.109 44.8242V36.0042H161.555V44.8242H160.109ZM166.098 45.0042C165.442 45.0042 164.866 44.8622 164.37 44.5782C163.874 44.2942 163.486 43.9002 163.206 43.3962C162.93 42.8922 162.792 42.3122 162.792 41.6562C162.792 40.9482 162.928 40.3342 163.2 39.8142C163.472 39.2902 163.85 38.8842 164.334 38.5962C164.818 38.3082 165.378 38.1642 166.014 38.1642C166.686 38.1642 167.256 38.3222 167.724 38.6382C168.196 38.9502 168.546 39.3922 168.774 39.9642C169.002 40.5362 169.088 41.2102 169.032 41.9862H167.598V41.4582C167.594 40.7542 167.47 40.2402 167.226 39.9162C166.982 39.5922 166.598 39.4302 166.074 39.4302C165.482 39.4302 165.042 39.6142 164.754 39.9822C164.466 40.3462 164.322 40.8802 164.322 41.5842C164.322 42.2402 164.466 42.7482 164.754 43.1082C165.042 43.4682 165.462 43.6482 166.014 43.6482C166.37 43.6482 166.676 43.5702 166.932 43.4142C167.192 43.2542 167.392 43.0242 167.532 42.7242L168.96 43.1562C168.712 43.7402 168.328 44.1942 167.808 44.5182C167.292 44.8422 166.722 45.0042 166.098 45.0042ZM163.866 41.9862V40.8942H168.324V41.9862H163.866ZM172.373 44.8242V36.1842H175.943C176.027 36.1842 176.135 36.1882 176.267 36.1962C176.399 36.2002 176.521 36.2122 176.633 36.2322C177.133 36.3082 177.545 36.4742 177.869 36.7302C178.197 36.9862 178.439 37.3102 178.595 37.7022C178.755 38.0902 178.835 38.5222 178.835 38.9982C178.835 39.7022 178.657 40.3082 178.301 40.8162C177.945 41.3202 177.399 41.6322 176.663 41.7522L176.045 41.8062H173.819V44.8242H172.373ZM177.335 44.8242L175.631 41.3082L177.101 40.9842L178.973 44.8242H177.335ZM173.819 40.4562H175.883C175.963 40.4562 176.053 40.4522 176.153 40.4442C176.253 40.4362 176.345 40.4202 176.429 40.3962C176.669 40.3362 176.857 40.2302 176.993 40.0782C177.133 39.9262 177.231 39.7542 177.287 39.5622C177.347 39.3702 177.377 39.1822 177.377 38.9982C177.377 38.8142 177.347 38.6262 177.287 38.4342C177.231 38.2382 177.133 38.0642 176.993 37.9122C176.857 37.7602 176.669 37.6542 176.429 37.5942C176.345 37.5702 176.253 37.5562 176.153 37.5522C176.053 37.5442 175.963 37.5402 175.883 37.5402H173.819V40.4562ZM181.907 45.0042C181.439 45.0042 181.043 44.9162 180.719 44.7402C180.395 44.5602 180.149 44.3222 179.981 44.0262C179.817 43.7302 179.735 43.4042 179.735 43.0482C179.735 42.7362 179.787 42.4562 179.891 42.2082C179.995 41.9562 180.155 41.7402 180.371 41.5602C180.587 41.3762 180.867 41.2262 181.211 41.1102C181.471 41.0262 181.775 40.9502 182.123 40.8822C182.475 40.8142 182.855 40.7522 183.263 40.6962C183.675 40.6362 184.105 40.5722 184.553 40.5042L184.037 40.7982C184.041 40.3502 183.941 40.0202 183.737 39.8082C183.533 39.5962 183.189 39.4902 182.705 39.4902C182.413 39.4902 182.131 39.5582 181.859 39.6942C181.587 39.8302 181.397 40.0642 181.289 40.3962L179.969 39.9822C180.129 39.4342 180.433 38.9942 180.881 38.6622C181.333 38.3302 181.941 38.1642 182.705 38.1642C183.281 38.1642 183.787 38.2582 184.223 38.4462C184.663 38.6342 184.989 38.9422 185.201 39.3702C185.317 39.5982 185.387 39.8322 185.411 40.0722C185.435 40.3082 185.447 40.5662 185.447 40.8462V44.8242H184.181V43.4202L184.391 43.6482C184.099 44.1162 183.757 44.4602 183.365 44.6802C182.977 44.8962 182.491 45.0042 181.907 45.0042ZM182.195 43.8522C182.523 43.8522 182.803 43.7942 183.035 43.6782C183.267 43.5622 183.451 43.4202 183.587 43.2522C183.727 43.0842 183.821 42.9262 183.869 42.7782C183.945 42.5942 183.987 42.3842 183.995 42.1482C184.007 41.9082 184.013 41.7142 184.013 41.5662L184.457 41.6982C184.021 41.7662 183.647 41.8262 183.335 41.8782C183.023 41.9302 182.755 41.9802 182.531 42.0282C182.307 42.0722 182.109 42.1222 181.937 42.1782C181.769 42.2382 181.627 42.3082 181.511 42.3882C181.395 42.4682 181.305 42.5602 181.241 42.6642C181.181 42.7682 181.151 42.8902 181.151 43.0302C181.151 43.1902 181.191 43.3322 181.271 43.4562C181.351 43.5762 181.467 43.6722 181.619 43.7442C181.775 43.8162 181.967 43.8522 182.195 43.8522ZM190.607 44.8242C190.179 44.9042 189.759 44.9382 189.347 44.9262C188.939 44.9182 188.573 44.8442 188.249 44.7042C187.925 44.5602 187.679 44.3342 187.511 44.0262C187.363 43.7462 187.285 43.4602 187.277 43.1682C187.269 42.8762 187.265 42.5462 187.265 42.1782V36.5442H188.705V42.0942C188.705 42.3542 188.707 42.5822 188.711 42.7782C188.719 42.9742 188.761 43.1342 188.837 43.2582C188.981 43.4982 189.211 43.6322 189.527 43.6602C189.843 43.6882 190.203 43.6722 190.607 43.6122V44.8242ZM186.089 39.4782V38.3442H190.607V39.4782H186.089ZM191.921 37.3602V36.0342H193.367V37.3602H191.921ZM191.921 44.8242V38.3442H193.367V44.8242H191.921ZM199.446 44.8242V41.7042C199.446 41.5002 199.432 41.2742 199.404 41.0262C199.376 40.7782 199.31 40.5402 199.206 40.3122C199.106 40.0802 198.954 39.8902 198.75 39.7422C198.55 39.5942 198.278 39.5202 197.934 39.5202C197.75 39.5202 197.568 39.5502 197.388 39.6102C197.208 39.6702 197.044 39.7742 196.896 39.9222C196.752 40.0662 196.636 40.2662 196.548 40.5222C196.46 40.7742 196.416 41.0982 196.416 41.4942L195.558 41.1282C195.558 40.5762 195.664 40.0762 195.876 39.6282C196.092 39.1802 196.408 38.8242 196.824 38.5602C197.24 38.2922 197.752 38.1582 198.36 38.1582C198.84 38.1582 199.236 38.2382 199.548 38.3982C199.86 38.5582 200.108 38.7622 200.292 39.0102C200.476 39.2582 200.612 39.5222 200.7 39.8022C200.788 40.0822 200.844 40.3482 200.868 40.6002C200.896 40.8482 200.91 41.0502 200.91 41.2062V44.8242H199.446ZM194.952 44.8242V38.3442H196.242V40.3542H196.416V44.8242H194.952ZM205 47.8842C204.64 47.8842 204.294 47.8282 203.962 47.7162C203.634 47.6042 203.338 47.4422 203.074 47.2302C202.81 47.0222 202.594 46.7702 202.426 46.4742L203.758 45.8142C203.882 46.0502 204.056 46.2242 204.28 46.3362C204.508 46.4522 204.75 46.5102 205.006 46.5102C205.306 46.5102 205.574 46.4562 205.81 46.3482C206.046 46.2442 206.228 46.0882 206.356 45.8802C206.488 45.6762 206.55 45.4202 206.542 45.1122V43.2702H206.722V38.3442H207.988V45.1362C207.988 45.3002 207.98 45.4562 207.964 45.6042C207.952 45.7562 207.93 45.9042 207.898 46.0482C207.802 46.4682 207.618 46.8122 207.346 47.0802C207.074 47.3522 206.736 47.5542 206.332 47.6862C205.932 47.8182 205.488 47.8842 205 47.8842ZM204.874 45.0042C204.278 45.0042 203.758 44.8542 203.314 44.5542C202.87 44.2542 202.526 43.8462 202.282 43.3302C202.038 42.8142 201.916 42.2322 201.916 41.5842C201.916 40.9282 202.038 40.3442 202.282 39.8322C202.53 39.3162 202.88 38.9102 203.332 38.6142C203.784 38.3142 204.316 38.1642 204.928 38.1642C205.544 38.1642 206.06 38.3142 206.476 38.6142C206.896 38.9102 207.214 39.3162 207.43 39.8322C207.646 40.3482 207.754 40.9322 207.754 41.5842C207.754 42.2282 207.646 42.8102 207.43 43.3302C207.214 43.8462 206.892 44.2542 206.464 44.5542C206.036 44.8542 205.506 45.0042 204.874 45.0042ZM205.096 43.7082C205.484 43.7082 205.796 43.6202 206.032 43.4442C206.272 43.2642 206.446 43.0142 206.554 42.6942C206.666 42.3742 206.722 42.0042 206.722 41.5842C206.722 41.1602 206.666 40.7902 206.554 40.4742C206.446 40.1542 206.276 39.9062 206.044 39.7302C205.812 39.5502 205.512 39.4602 205.144 39.4602C204.756 39.4602 204.436 39.5562 204.184 39.7482C203.932 39.9362 203.746 40.1922 203.626 40.5162C203.506 40.8362 203.446 41.1922 203.446 41.5842C203.446 41.9802 203.504 42.3402 203.62 42.6642C203.74 42.9842 203.922 43.2382 204.166 43.4262C204.41 43.6142 204.72 43.7082 205.096 43.7082Z" fill="#6A6A6A"/>
<path d="M134.25 62.5V60.834H129.784V59.259L133.011 52.42H134.936L131.709 59.259H134.25V56.634H135.958V59.259H136.903V60.834H135.958V62.5H134.25ZM138.288 62.5V60.771H140.017V62.5H138.288ZM145.215 52.224C145.873 52.224 146.466 52.3803 146.993 52.693C147.521 53.001 147.936 53.4303 148.239 53.981C148.547 54.527 148.701 55.157 148.701 55.871V58.944C148.701 59.7047 148.547 60.3697 148.239 60.939C147.936 61.5037 147.509 61.94 146.958 62.248C146.408 62.556 145.764 62.71 145.026 62.71C144.518 62.71 144.037 62.6237 143.584 62.451C143.132 62.2737 142.726 62.003 142.366 61.639L143.577 60.456C143.759 60.666 143.976 60.8317 144.228 60.953C144.485 61.0697 144.751 61.128 145.026 61.128C145.418 61.128 145.761 61.037 146.055 60.855C146.349 60.6683 146.578 60.428 146.741 60.134C146.905 59.8353 146.986 59.5157 146.986 59.175V57.502L147.287 57.838C147.003 58.174 146.657 58.4377 146.251 58.629C145.845 58.8157 145.418 58.909 144.97 58.909C144.34 58.909 143.78 58.7643 143.29 58.475C142.805 58.1857 142.422 57.7937 142.142 57.299C141.867 56.7997 141.729 56.235 141.729 55.605C141.729 54.975 141.888 54.4057 142.205 53.897C142.523 53.3837 142.945 52.9777 143.472 52.679C144.004 52.3757 144.585 52.224 145.215 52.224ZM145.215 53.834C144.889 53.834 144.59 53.9133 144.319 54.072C144.049 54.2307 143.834 54.4453 143.675 54.716C143.517 54.982 143.437 55.2783 143.437 55.605C143.437 55.9317 143.514 56.2303 143.668 56.501C143.827 56.7717 144.039 56.9863 144.305 57.145C144.576 57.3037 144.875 57.383 145.201 57.383C145.528 57.383 145.827 57.3037 146.097 57.145C146.368 56.9863 146.583 56.7717 146.741 56.501C146.905 56.2303 146.986 55.9317 146.986 55.605C146.986 55.2877 146.907 54.996 146.748 54.73C146.59 54.4593 146.375 54.2423 146.104 54.079C145.838 53.9157 145.542 53.834 145.215 53.834Z" fill="#FEA500"/>
<path d="M167.916 49.9412C168.144 49.4826 168.798 49.4826 169.026 49.9412L170.887 53.6868C170.977 53.8684 171.151 53.9944 171.351 54.0241L175.489 54.6366C175.995 54.7116 176.197 55.3338 175.832 55.6922L172.844 58.6196C172.7 58.7615 172.633 58.9654 172.667 59.1653L173.363 63.2895C173.448 63.7944 172.919 64.179 172.465 63.9419L168.758 62.0055C168.578 61.9116 168.364 61.9116 168.184 62.0055L164.477 63.9419C164.023 64.179 163.494 63.7944 163.579 63.2895L164.275 59.1653C164.309 58.9654 164.242 58.7615 164.098 58.6196L161.11 55.6922C160.745 55.3338 160.947 54.7116 161.453 54.6366L165.591 54.0241C165.791 53.9944 165.965 53.8684 166.055 53.6868L167.916 49.9412Z" fill="#FEA500"/>
<path d="M185.269 49.9412C185.496 49.4826 186.151 49.4826 186.379 49.9412L188.24 53.6868C188.33 53.8684 188.503 53.9944 188.704 54.0241L192.841 54.6366C193.348 54.7116 193.55 55.3338 193.184 55.6922L190.197 58.6196C190.052 58.7615 189.986 58.9654 190.02 59.1653L190.716 63.2895C190.801 63.7944 190.272 64.179 189.818 63.9419L186.11 62.0055C185.931 61.9116 185.716 61.9116 185.537 62.0055L181.829 63.9419C181.375 64.179 180.846 63.7944 180.931 63.2895L181.627 59.1653C181.661 58.9654 181.595 58.7615 181.45 58.6196L178.463 55.6922C178.097 55.3338 178.299 54.7116 178.806 54.6366L182.943 54.0241C183.144 53.9944 183.317 53.8684 183.408 53.6868L185.269 49.9412Z" fill="#FEA500"/>
<path d="M202.62 49.9412C202.848 49.4826 203.502 49.4826 203.73 49.9412L205.591 53.6868C205.681 53.8684 205.855 53.9944 206.055 54.0241L210.193 54.6366C210.699 54.7116 210.901 55.3338 210.536 55.6922L207.548 58.6196C207.404 58.7615 207.337 58.9654 207.371 59.1653L208.067 63.2895C208.152 63.7944 207.623 64.179 207.169 63.9419L203.462 62.0055C203.282 61.9116 203.068 61.9116 202.888 62.0055L199.181 63.9419C198.727 64.179 198.198 63.7944 198.283 63.2895L198.979 59.1653C199.013 58.9654 198.947 58.7615 198.802 58.6196L195.814 55.6922C195.449 55.3338 195.651 54.7116 196.157 54.6366L200.295 54.0241C200.495 53.9944 200.669 53.8684 200.759 53.6868L202.62 49.9412Z" fill="#FEA500"/>
<path d="M219.973 49.9412C220.2 49.4826 220.855 49.4826 221.083 49.9412L222.944 53.6868C223.034 53.8684 223.207 53.9944 223.408 54.0241L227.545 54.6366C228.052 54.7116 228.254 55.3338 227.888 55.6922L224.901 58.6196C224.756 58.7615 224.69 58.9654 224.724 59.1653L225.42 63.2895C225.505 63.7944 224.976 64.179 224.522 63.9419L220.815 62.0055C220.635 61.9116 220.42 61.9116 220.241 62.0055L216.534 63.9419C216.08 64.179 215.55 63.7944 215.636 63.2895L216.332 59.1653C216.365 58.9654 216.299 58.7615 216.154 58.6196L213.167 55.6922C212.801 55.3338 213.003 54.7116 213.51 54.6366L217.647 54.0241C217.848 53.9944 218.021 53.8684 218.112 53.6868L219.973 49.9412Z" fill="#FEA500"/>
<path d="M237.324 49.9412C237.552 49.4826 238.206 49.4826 238.434 49.9412L240.295 53.6868C240.385 53.8684 240.559 53.9944 240.759 54.0241L244.897 54.6366C245.403 54.7116 245.606 55.3338 245.24 55.6922L242.253 58.6196C242.108 58.7615 242.042 58.9654 242.075 59.1653L242.771 63.2895C242.856 63.7944 242.327 64.179 241.873 63.9419L238.166 62.0055C237.986 61.9116 237.772 61.9116 237.592 62.0055L233.885 63.9419C233.431 64.179 232.902 63.7944 232.987 63.2895L233.683 59.1653C233.717 58.9654 233.651 58.7615 233.506 58.6196L230.519 55.6922C230.153 55.3338 230.355 54.7116 230.862 54.6366L234.999 54.0241C235.2 53.9944 235.373 53.8684 235.463 53.6868L237.324 49.9412Z" fill="#FEA500"/>
</g>
</g>
<defs>
<filter id="filter0_dd_10687_27081" x="0.605634" y="0.887323" width="351.577" height="117.577" filterUnits="userSpaceOnUse" color-interpolation-filters="sRGB">
<feFlood flood-opacity="0" result="BackgroundImageFix"/>
<feColorMatrix in="SourceAlpha" type="matrix" values="0 0 0 0 0 0 0 0 0 0 0 0 0 0 0 0 0 0 127 0" result="hardAlpha"/>
<feOffset dx="12.3944" dy="8.67606"/>
<feGaussianBlur stdDeviation="12.3944"/>
<feComposite in2="hardAlpha" operator="out"/>
<feColorMatrix type="matrix" values="0 0 0 0 0 0 0 0 0 0 0 0 0 0 0 0 0 0 0.08 0"/>
<feBlend mode="normal" in2="BackgroundImageFix" result="effect1_dropShadow_10687_27081"/>
<feColorMatrix in="SourceAlpha" type="matrix" values="0 0 0 0 0 0 0 0 0 0 0 0 0 0 0 0 0 0 127 0" result="hardAlpha"/>
<feOffset dx="-2.47887" dy="-1.23944"/>
<feGaussianBlur stdDeviation="4.95775"/>
<feComposite in2="hardAlpha" operator="out"/>
<feColorMatrix type="matrix" values="0 0 0 0 0 0 0 0 0 0 0 0 0 0 0 0 0 0 0.08 0"/>
<feBlend mode="normal" in2="effect1_dropShadow_10687_27081" result="effect2_dropShadow_10687_27081"/>
<feBlend mode="normal" in="SourceGraphic" in2="effect2_dropShadow_10687_27081" result="shape"/>
</filter>
<clipPath id="clip0_10687_27081">
<path d="M13 21.9577C13 19.2197 15.2197 17 17.9577 17H310.042C312.78 17 315 19.2197 315 21.9577V80.0423C315 82.7803 312.78 85 310.042 85H17.9577C15.2196 85 13 82.7803 13 80.0423V21.9577Z" fill="white"/>
</clipPath>
</defs>
</svg>
