<svg width="41" height="41" viewBox="0 0 41 41" fill="none" xmlns="http://www.w3.org/2000/svg">
<rect x="1.94261" y="2.00023" width="36.5385" height="36.3846" rx="18.1923" stroke="#D07FFF" stroke-width="3.84615"/>
<path d="M15.0478 26.6924V24.2339L19.7435 20.3495C20.0549 20.0914 20.3212 19.8496 20.5425 19.6243C20.7679 19.3948 20.94 19.1592 21.0588 18.9174C21.1817 18.6757 21.2432 18.4073 21.2432 18.1123C21.2432 17.7886 21.1735 17.512 21.0342 17.2826C20.899 17.0531 20.7105 16.8769 20.4687 16.754C20.227 16.627 19.9484 16.5634 19.6329 16.5634C19.3174 16.5634 19.0387 16.627 18.797 16.754C18.5593 16.881 18.3749 17.0674 18.2438 17.3133C18.1127 17.5591 18.0471 17.8582 18.0471 18.2106H14.8019C14.8019 17.3256 15.0007 16.5634 15.3981 15.9242C15.7956 15.285 16.3569 14.7933 17.0822 14.4492C17.8074 14.105 18.6577 13.9329 19.6329 13.9329C20.6408 13.9329 21.5136 14.0947 22.2511 14.4184C22.9928 14.738 23.5644 15.1888 23.9659 15.7706C24.3716 16.3524 24.5744 17.0347 24.5744 17.8173C24.5744 18.3008 24.474 18.7822 24.2732 19.2616C24.0725 19.7369 23.7119 20.2635 23.1915 20.8412C22.6711 21.4189 21.9315 22.1073 20.9727 22.9063L19.7927 23.8897V23.9635H24.7096V26.6924H15.0478Z" fill="#D07FFF"/>
</svg>
