<svg width="41" height="41" viewBox="0 0 41 41" fill="none" xmlns="http://www.w3.org/2000/svg">
<rect x="2.40452" y="2.00023" width="36.5385" height="36.3846" rx="18.1923" stroke="#FED74B" stroke-width="3.84615"/>
<path d="M20.5496 26.8645C19.5826 26.8645 18.7242 26.6944 17.9743 26.3543C17.2286 26.0102 16.6406 25.5369 16.2104 24.9346C15.7842 24.3322 15.5671 23.6398 15.5589 22.8572H18.8778C18.8901 23.2915 19.0581 23.6377 19.3818 23.8959C19.7096 24.154 20.0989 24.2831 20.5496 24.2831C20.8979 24.2831 21.2052 24.2093 21.4715 24.0618C21.7379 23.9102 21.9468 23.6971 22.0984 23.4226C22.25 23.1481 22.3238 22.8285 22.3197 22.4638C22.3238 22.095 22.25 21.7754 22.0984 21.505C21.9468 21.2305 21.7379 21.0194 21.4715 20.8719C21.2052 20.7203 20.8979 20.6445 20.5496 20.6445C20.189 20.6445 19.8551 20.7326 19.5478 20.9088C19.2446 21.0809 19.0212 21.3206 18.8778 21.6279L15.8785 21.0379L16.3702 14.105H24.8273V16.8339H19.1728L18.927 19.612H19.0008C19.1974 19.2309 19.5375 18.9154 20.021 18.6654C20.5045 18.4114 21.0659 18.2844 21.7051 18.2844C22.4549 18.2844 23.1228 18.4585 23.7087 18.8068C24.2988 19.1551 24.7638 19.6365 25.1039 20.2512C25.4481 20.8617 25.6182 21.5665 25.6141 22.3655C25.6182 23.2423 25.4092 24.0208 24.9871 24.701C24.5692 25.3771 23.9812 25.9077 23.2232 26.2929C22.4652 26.6739 21.574 26.8645 20.5496 26.8645Z" fill="#FED74B"/>
</svg>
