<svg width="41" height="41" viewBox="0 0 41 41" fill="none" xmlns="http://www.w3.org/2000/svg">
<rect x="2.25023" y="2.00023" width="36.5385" height="36.3846" rx="18.1923" stroke="#D07FFF" stroke-width="3.84615"/>
<path d="M20.6166 26.8645C19.8831 26.8645 19.1865 26.7497 18.5269 26.5203C17.8713 26.2867 17.2894 25.92 16.7813 25.4201C16.2732 24.9202 15.8737 24.2687 15.5828 23.4656C15.296 22.6625 15.1546 21.6894 15.1587 20.5462C15.1628 19.5259 15.294 18.6081 15.5521 17.7927C15.8143 16.9773 16.1852 16.2828 16.6646 15.7091C17.1481 15.1355 17.7258 14.6971 18.3978 14.3938C19.0698 14.0865 19.8176 13.9329 20.6411 13.9329C21.5672 13.9329 22.3826 14.1111 23.0873 14.4676C23.7921 14.8241 24.3534 15.3014 24.7714 15.8997C25.1934 16.4938 25.4393 17.1494 25.5089 17.8664H22.1408C22.063 17.51 21.8827 17.2498 21.6 17.0859C21.3213 16.9179 21.0017 16.8339 20.6411 16.8339C19.9241 16.8339 19.3976 17.1453 19.0616 17.7681C18.7297 18.3909 18.5596 19.2104 18.5514 20.2266H18.6252C18.785 19.8414 19.0267 19.5116 19.3504 19.237C19.6741 18.9625 20.0511 18.7515 20.4813 18.604C20.9116 18.4565 21.3664 18.3827 21.8458 18.3827C22.6079 18.3827 23.2738 18.5548 23.8433 18.899C24.417 19.2432 24.8636 19.7144 25.1832 20.3126C25.5028 20.9109 25.6605 21.5951 25.6564 22.3655C25.6605 23.2669 25.4475 24.0557 25.0172 24.7317C24.5911 25.4078 23.999 25.9323 23.241 26.3052C22.483 26.678 21.6081 26.8645 20.6166 26.8645ZM20.592 24.2831C20.9321 24.2831 21.2332 24.2052 21.4955 24.0495C21.7618 23.8938 21.9687 23.6807 22.1162 23.4103C22.2678 23.1399 22.3416 22.8326 22.3375 22.4884C22.3416 22.1401 22.2678 21.8328 22.1162 21.5665C21.9687 21.296 21.7618 21.083 21.4955 20.9272C21.2332 20.7715 20.9321 20.6937 20.592 20.6937C20.342 20.6937 20.1105 20.7388 19.8975 20.8289C19.6885 20.915 19.5061 21.0399 19.3504 21.2038C19.1947 21.3636 19.0718 21.5542 18.9817 21.7754C18.8956 21.9926 18.8506 22.2302 18.8465 22.4884C18.8506 22.8326 18.9284 23.1399 19.08 23.4103C19.2316 23.6807 19.4385 23.8938 19.7008 24.0495C19.963 24.2052 20.2601 24.2831 20.592 24.2831Z" fill="#D07FFF"/>
</svg>
