<svg width="42" height="41" viewBox="0 0 42 41" fill="none" xmlns="http://www.w3.org/2000/svg">
<rect x="2.78929" y="2.00023" width="36.5385" height="36.3846" rx="18.1923" stroke="#D07FFF" stroke-width="3.84615"/>
<path d="M20.8114 26.8645C19.8198 26.8645 18.9389 26.6944 18.1686 26.3543C17.4023 26.0102 16.8 25.5369 16.3616 24.9346C15.9232 24.3322 15.7019 23.6398 15.6978 22.8572H19.1397C19.1438 23.0989 19.2175 23.3161 19.3609 23.5087C19.5084 23.6971 19.7092 23.8446 19.9633 23.9512C20.2173 24.0577 20.5082 24.111 20.836 24.111C21.1515 24.111 21.4302 24.0557 21.6719 23.945C21.9137 23.8303 22.1021 23.6726 22.2374 23.4718C22.3726 23.271 22.4381 23.0415 22.434 22.7834C22.4381 22.5294 22.3603 22.304 22.2005 22.1073C22.0448 21.9106 21.8256 21.757 21.5428 21.6464C21.2601 21.5357 20.9344 21.4804 20.5656 21.4804H19.2872V19.1203H20.5656C20.9057 19.1203 21.2048 19.065 21.4629 18.9543C21.7252 18.8437 21.928 18.69 22.0714 18.4934C22.2189 18.2967 22.2906 18.0713 22.2865 17.8173C22.2906 17.5714 22.2312 17.3543 22.1083 17.1658C21.9854 16.9773 21.8133 16.8298 21.592 16.7233C21.3748 16.6167 21.1228 16.5634 20.836 16.5634C20.5246 16.5634 20.246 16.6188 20.0001 16.7294C19.7584 16.84 19.5679 16.9937 19.4285 17.1904C19.2892 17.387 19.2175 17.6124 19.2134 17.8664H15.9436C15.9477 17.0961 16.1588 16.4159 16.5767 15.8259C16.9987 15.2359 17.5765 14.7729 18.3099 14.4369C19.0434 14.1009 19.8854 13.9329 20.836 13.9329C21.7661 13.9329 22.5877 14.0906 23.3006 14.4061C24.0177 14.7216 24.577 15.156 24.9786 15.7091C25.3842 16.2582 25.585 16.8871 25.5809 17.596C25.5891 18.3008 25.3473 18.8785 24.8556 19.3292C24.368 19.78 23.7493 20.0463 22.9995 20.1282V20.2266C24.0157 20.3372 24.7798 20.6486 25.292 21.1608C25.8042 21.6689 26.0562 22.3081 26.048 23.0784C26.0521 23.816 25.8308 24.4695 25.3842 25.0391C24.9417 25.6086 24.325 26.0552 23.5342 26.3789C22.7475 26.7026 21.8399 26.8645 20.8114 26.8645Z" fill="#D07FFF"/>
</svg>
