<svg width="662" height="234" viewBox="0 0 662 234" fill="none" xmlns="http://www.w3.org/2000/svg">
<path d="M58.377 28.7041C58.377 28.4404 58.3359 28.2061 58.2539 28.001C58.1777 27.7959 58.04 27.6084 57.8408 27.4385C57.6416 27.2686 57.3604 27.1045 56.9971 26.9463C56.6396 26.7822 56.1826 26.6152 55.626 26.4453C55.0166 26.2578 54.4541 26.0498 53.9385 25.8213C53.4287 25.5869 52.9834 25.3174 52.6025 25.0127C52.2217 24.7021 51.9258 24.3477 51.7148 23.9492C51.5039 23.5449 51.3984 23.0791 51.3984 22.5518C51.3984 22.0303 51.5068 21.5557 51.7236 21.1279C51.9463 20.7002 52.2598 20.3311 52.6641 20.0205C53.0742 19.7041 53.5576 19.4609 54.1143 19.291C54.6709 19.1152 55.2861 19.0273 55.96 19.0273C56.9092 19.0273 57.7266 19.2031 58.4121 19.5547C59.1035 19.9062 59.6338 20.3779 60.0029 20.9697C60.3779 21.5615 60.5654 22.2148 60.5654 22.9297H58.377C58.377 22.5078 58.2861 22.1357 58.1045 21.8135C57.9287 21.4854 57.6592 21.2275 57.2959 21.04C56.9385 20.8525 56.4844 20.7588 55.9336 20.7588C55.4121 20.7588 54.9785 20.8379 54.6328 20.9961C54.2871 21.1543 54.0293 21.3682 53.8594 21.6377C53.6895 21.9072 53.6045 22.2119 53.6045 22.5518C53.6045 22.792 53.6602 23.0117 53.7715 23.2109C53.8828 23.4043 54.0527 23.5859 54.2812 23.7559C54.5098 23.9199 54.7969 24.0752 55.1426 24.2217C55.4883 24.3682 55.8955 24.5088 56.3643 24.6436C57.0732 24.8545 57.6914 25.0889 58.2188 25.3467C58.7461 25.5986 59.1855 25.8857 59.5371 26.208C59.8887 26.5303 60.1523 26.8965 60.3281 27.3066C60.5039 27.7109 60.5918 28.1709 60.5918 28.6865C60.5918 29.2256 60.4834 29.7119 60.2666 30.1455C60.0498 30.5732 59.7393 30.9395 59.335 31.2441C58.9365 31.543 58.4561 31.7744 57.8936 31.9385C57.3369 32.0967 56.7158 32.1758 56.0303 32.1758C55.415 32.1758 54.8086 32.0938 54.2109 31.9297C53.6191 31.7656 53.0801 31.5166 52.5938 31.1826C52.1074 30.8428 51.7207 30.4209 51.4336 29.917C51.1465 29.4072 51.0029 28.8125 51.0029 28.1328H53.209C53.209 28.5488 53.2793 28.9033 53.4199 29.1963C53.5664 29.4893 53.7686 29.7295 54.0264 29.917C54.2842 30.0986 54.583 30.2334 54.9229 30.3213C55.2686 30.4092 55.6377 30.4531 56.0303 30.4531C56.5459 30.4531 56.9766 30.3799 57.3223 30.2334C57.6738 30.0869 57.9375 29.8818 58.1133 29.6182C58.2891 29.3545 58.377 29.0498 58.377 28.7041ZM64.4678 18.5V32H62.3408V18.5H64.4678ZM70.374 22.4902L66.2344 27.0781L63.9668 29.3984L63.4131 27.6055L65.127 25.4873L67.8164 22.4902H70.374ZM68.2734 32L65.1885 27.5352L66.5244 26.0498L70.7256 32H68.2734ZM73.9863 22.4902V32H71.8594V22.4902H73.9863ZM71.7188 19.9941C71.7188 19.6719 71.8242 19.4053 72.0352 19.1943C72.252 18.9775 72.5508 18.8691 72.9316 18.8691C73.3066 18.8691 73.6025 18.9775 73.8193 19.1943C74.0361 19.4053 74.1445 19.6719 74.1445 19.9941C74.1445 20.3105 74.0361 20.5742 73.8193 20.7852C73.6025 20.9961 73.3066 21.1016 72.9316 21.1016C72.5508 21.1016 72.252 20.9961 72.0352 20.7852C71.8242 20.5742 71.7188 20.3105 71.7188 19.9941ZM78.5742 18.5V32H76.4473V18.5H78.5742ZM83.1621 18.5V32H81.0352V18.5H83.1621ZM90.8174 29.4248C90.8174 29.2139 90.7646 29.0234 90.6592 28.8535C90.5537 28.6777 90.3516 28.5195 90.0527 28.3789C89.7598 28.2383 89.3262 28.1094 88.752 27.9922C88.248 27.8809 87.7852 27.749 87.3633 27.5967C86.9473 27.4385 86.5898 27.248 86.291 27.0254C85.9922 26.8027 85.7607 26.5391 85.5967 26.2344C85.4326 25.9297 85.3506 25.5781 85.3506 25.1797C85.3506 24.793 85.4355 24.4268 85.6055 24.0811C85.7754 23.7354 86.0186 23.4307 86.335 23.167C86.6514 22.9033 87.0352 22.6953 87.4863 22.543C87.9434 22.3906 88.4531 22.3145 89.0156 22.3145C89.8125 22.3145 90.4951 22.4492 91.0635 22.7188C91.6377 22.9824 92.0771 23.3428 92.3818 23.7998C92.6865 24.251 92.8389 24.7607 92.8389 25.3291H90.7207C90.7207 25.0771 90.6562 24.8428 90.5273 24.626C90.4043 24.4033 90.2168 24.2246 89.9648 24.0898C89.7129 23.9492 89.3965 23.8789 89.0156 23.8789C88.6523 23.8789 88.3506 23.9375 88.1104 24.0547C87.876 24.166 87.7002 24.3125 87.583 24.4941C87.4717 24.6758 87.416 24.875 87.416 25.0918C87.416 25.25 87.4453 25.3936 87.5039 25.5225C87.5684 25.6455 87.6738 25.7598 87.8203 25.8652C87.9668 25.9648 88.166 26.0586 88.418 26.1465C88.6758 26.2344 88.998 26.3193 89.3848 26.4014C90.1113 26.5537 90.7354 26.75 91.2568 26.9902C91.7842 27.2246 92.1885 27.5293 92.4697 27.9043C92.751 28.2734 92.8916 28.7422 92.8916 29.3105C92.8916 29.7324 92.8008 30.1191 92.6191 30.4707C92.4434 30.8164 92.1855 31.1182 91.8457 31.376C91.5059 31.6279 91.0986 31.8242 90.624 31.9648C90.1553 32.1055 89.6279 32.1758 89.042 32.1758C88.1807 32.1758 87.4512 32.0234 86.8535 31.7188C86.2559 31.4082 85.8018 31.0127 85.4912 30.5322C85.1865 30.0459 85.0342 29.542 85.0342 29.0205H87.082C87.1055 29.4131 87.2139 29.7266 87.4072 29.9609C87.6064 30.1895 87.8525 30.3564 88.1455 30.4619C88.4443 30.5615 88.752 30.6113 89.0684 30.6113C89.4492 30.6113 89.7686 30.5615 90.0264 30.4619C90.2842 30.3564 90.4805 30.2158 90.6152 30.04C90.75 29.8584 90.8174 29.6533 90.8174 29.4248Z" fill="#0A0A0A"/>
<path d="M57.7461 132.525L55.5 131.988L56.3105 124.781H64.2988V127.057H58.625L58.2734 130.211C58.4622 130.1 58.7487 129.983 59.1328 129.859C59.5169 129.729 59.9466 129.664 60.4219 129.664C61.112 129.664 61.724 129.771 62.2578 129.986C62.7917 130.201 63.2441 130.514 63.6152 130.924C63.9928 131.334 64.2793 131.835 64.4746 132.428C64.6699 133.02 64.7676 133.691 64.7676 134.439C64.7676 135.071 64.6699 135.673 64.4746 136.246C64.2793 136.812 63.9831 137.32 63.5859 137.77C63.1888 138.212 62.6908 138.561 62.0918 138.814C61.4928 139.068 60.7832 139.195 59.9629 139.195C59.3509 139.195 58.7585 139.104 58.1855 138.922C57.6191 138.74 57.1081 138.469 56.6523 138.111C56.2031 137.753 55.8418 137.32 55.5684 136.812C55.3014 136.298 55.1615 135.712 55.1484 135.055H57.9414C57.9805 135.458 58.0846 135.807 58.2539 136.1C58.4297 136.386 58.6608 136.607 58.9473 136.764C59.2337 136.92 59.569 136.998 59.9531 136.998C60.3112 136.998 60.6172 136.93 60.8711 136.793C61.125 136.656 61.3301 136.467 61.4863 136.227C61.6426 135.979 61.7565 135.693 61.8281 135.367C61.9062 135.035 61.9453 134.677 61.9453 134.293C61.9453 133.909 61.8997 133.561 61.8086 133.248C61.7174 132.936 61.5775 132.665 61.3887 132.438C61.1999 132.21 60.959 132.034 60.666 131.91C60.3796 131.786 60.0443 131.725 59.6602 131.725C59.1393 131.725 58.7357 131.806 58.4492 131.969C58.1693 132.132 57.9349 132.317 57.7461 132.525ZM76.1543 130.641V133.102C76.1543 134.169 76.0404 135.09 75.8125 135.865C75.5846 136.633 75.2559 137.265 74.8262 137.76C74.403 138.248 73.8984 138.609 73.3125 138.844C72.7266 139.078 72.0755 139.195 71.3594 139.195C70.7865 139.195 70.2526 139.124 69.7578 138.98C69.263 138.831 68.8171 138.6 68.4199 138.287C68.0293 137.975 67.6908 137.581 67.4043 137.105C67.1243 136.624 66.9095 136.051 66.7598 135.387C66.61 134.723 66.5352 133.961 66.5352 133.102V130.641C66.5352 129.573 66.6491 128.658 66.877 127.896C67.1113 127.128 67.4401 126.5 67.8633 126.012C68.293 125.523 68.8008 125.165 69.3867 124.938C69.9727 124.703 70.6237 124.586 71.3398 124.586C71.9128 124.586 72.4434 124.661 72.9316 124.811C73.4264 124.954 73.8724 125.178 74.2695 125.484C74.6667 125.79 75.0052 126.184 75.2852 126.666C75.5651 127.141 75.7799 127.711 75.9297 128.375C76.0794 129.033 76.1543 129.788 76.1543 130.641ZM73.332 133.473V130.26C73.332 129.745 73.3027 129.296 73.2441 128.912C73.1921 128.528 73.1107 128.202 73 127.936C72.8893 127.662 72.7526 127.441 72.5898 127.271C72.4271 127.102 72.2415 126.979 72.0332 126.9C71.8249 126.822 71.5938 126.783 71.3398 126.783C71.0208 126.783 70.7376 126.845 70.4902 126.969C70.2493 127.092 70.0443 127.291 69.875 127.564C69.7057 127.831 69.5755 128.189 69.4844 128.639C69.3997 129.081 69.3574 129.622 69.3574 130.26V133.473C69.3574 133.987 69.3835 134.439 69.4355 134.83C69.4941 135.221 69.5788 135.556 69.6895 135.836C69.8066 136.109 69.9434 136.334 70.0996 136.51C70.2624 136.679 70.4479 136.803 70.6562 136.881C70.8711 136.959 71.1055 136.998 71.3594 136.998C71.6719 136.998 71.9486 136.936 72.1895 136.812C72.4368 136.682 72.6452 136.48 72.8145 136.207C72.9902 135.927 73.1204 135.562 73.2051 135.113C73.2897 134.664 73.332 134.117 73.332 133.473ZM78.0293 128.268V127.516C78.0293 126.975 78.1465 126.484 78.3809 126.041C78.6152 125.598 78.9603 125.243 79.416 124.977C79.8717 124.71 80.4316 124.576 81.0957 124.576C81.7793 124.576 82.349 124.71 82.8047 124.977C83.2669 125.243 83.612 125.598 83.8398 126.041C84.0742 126.484 84.1914 126.975 84.1914 127.516V128.268C84.1914 128.795 84.0742 129.28 83.8398 129.723C83.612 130.165 83.2702 130.52 82.8145 130.787C82.3587 131.054 81.7956 131.188 81.125 131.188C80.4479 131.188 79.8783 131.054 79.416 130.787C78.9603 130.52 78.6152 130.165 78.3809 129.723C78.1465 129.28 78.0293 128.795 78.0293 128.268ZM79.8945 127.516V128.268C79.8945 128.495 79.9368 128.714 80.0215 128.922C80.1126 129.124 80.2493 129.29 80.4316 129.42C80.6204 129.544 80.8483 129.605 81.1152 129.605C81.3952 129.605 81.623 129.544 81.7988 129.42C81.9746 129.29 82.1048 129.124 82.1895 128.922C82.2741 128.714 82.3164 128.495 82.3164 128.268V127.516C82.3164 127.275 82.2708 127.053 82.1797 126.852C82.0951 126.643 81.9616 126.477 81.7793 126.354C81.6035 126.223 81.3757 126.158 81.0957 126.158C80.8353 126.158 80.6139 126.223 80.4316 126.354C80.2493 126.477 80.1126 126.643 80.0215 126.852C79.9368 127.053 79.8945 127.275 79.8945 127.516ZM84.8262 136.266V135.514C84.8262 134.98 84.9434 134.492 85.1777 134.049C85.4186 133.606 85.7669 133.251 86.2227 132.984C86.6849 132.717 87.2513 132.584 87.9219 132.584C88.599 132.584 89.1654 132.717 89.6211 132.984C90.0768 133.251 90.4219 133.606 90.6562 134.049C90.8906 134.492 91.0078 134.98 91.0078 135.514V136.266C91.0078 136.799 90.8906 137.288 90.6562 137.73C90.4284 138.173 90.0866 138.528 89.6309 138.795C89.1751 139.062 88.612 139.195 87.9414 139.195C87.2643 139.195 86.6947 139.062 86.2324 138.795C85.7702 138.528 85.4186 138.173 85.1777 137.73C84.9434 137.288 84.8262 136.799 84.8262 136.266ZM86.7012 135.514V136.266C86.7012 136.5 86.7533 136.721 86.8574 136.93C86.9616 137.138 87.1048 137.304 87.2871 137.428C87.4759 137.551 87.694 137.613 87.9414 137.613C88.2539 137.613 88.498 137.551 88.6738 137.428C88.8496 137.304 88.9701 137.138 89.0352 136.93C89.1068 136.721 89.1426 136.5 89.1426 136.266V135.514C89.1426 135.279 89.097 135.061 89.0059 134.859C88.9147 134.651 88.778 134.485 88.5957 134.361C88.4199 134.231 88.1953 134.166 87.9219 134.166C87.6484 134.166 87.4206 134.231 87.2383 134.361C87.0625 134.485 86.929 134.651 86.8379 134.859C86.7467 135.061 86.7012 135.279 86.7012 135.514ZM88.6152 126.812L81.6719 137.926L80.3047 137.203L87.248 126.09L88.6152 126.812Z" fill="#0A0A0A"/>
<path d="M145 132C145 171.765 112.765 204 73 204C33.2355 204 1 171.765 1 132C1 92.2355 33.2355 60 73 60C112.765 60 145 92.2355 145 132ZM15.4 132C15.4 163.812 41.1884 189.6 73 189.6C104.812 189.6 130.6 163.812 130.6 132C130.6 100.188 104.812 74.4 73 74.4C41.1884 74.4 15.4 100.188 15.4 132Z" fill="white"/>
<path d="M71.9998 204C61.751 204 51.6202 201.812 42.2849 197.582C32.9496 193.352 24.6249 187.178 17.8673 179.473C11.1098 171.767 6.07519 162.708 3.10011 152.901C0.125023 143.093 -0.72197 132.763 0.615776 122.602C1.95352 112.441 5.44516 102.682 10.8572 93.9791C16.2693 85.2758 23.4771 77.8282 31.9987 72.1342C40.5203 66.4402 50.1594 62.6312 60.2713 60.9617C70.3833 59.2922 80.7351 59.8008 90.6348 62.4533L86.9078 76.3627C78.9881 74.2406 70.7066 73.8337 62.617 75.1693C54.5275 76.5049 46.8162 79.5522 39.999 84.1074C33.1817 88.6625 27.4154 94.6206 23.0858 101.583C18.7561 108.546 15.9628 116.353 14.8926 124.482C13.8224 132.611 14.5 140.874 16.88 148.72C19.2601 156.566 23.2878 163.814 28.6938 169.978C34.0999 176.143 40.7596 181.082 48.2279 184.466C55.6961 187.85 63.8007 189.6 71.9998 189.6V204Z" fill="#CA58FF"/>
<path d="M192.058 137.99V133.492H187.56V130.762H192.058V126.29H194.788V130.762H199.26V133.492H194.788V137.99H192.058Z" fill="black"/>
<path d="M298.746 132.525L296.5 131.988L297.311 124.781H305.299V127.057H299.625L299.273 130.211C299.462 130.1 299.749 129.983 300.133 129.859C300.517 129.729 300.947 129.664 301.422 129.664C302.112 129.664 302.724 129.771 303.258 129.986C303.792 130.201 304.244 130.514 304.615 130.924C304.993 131.334 305.279 131.835 305.475 132.428C305.67 133.02 305.768 133.691 305.768 134.439C305.768 135.071 305.67 135.673 305.475 136.246C305.279 136.812 304.983 137.32 304.586 137.77C304.189 138.212 303.691 138.561 303.092 138.814C302.493 139.068 301.783 139.195 300.963 139.195C300.351 139.195 299.758 139.104 299.186 138.922C298.619 138.74 298.108 138.469 297.652 138.111C297.203 137.753 296.842 137.32 296.568 136.812C296.301 136.298 296.161 135.712 296.148 135.055H298.941C298.98 135.458 299.085 135.807 299.254 136.1C299.43 136.386 299.661 136.607 299.947 136.764C300.234 136.92 300.569 136.998 300.953 136.998C301.311 136.998 301.617 136.93 301.871 136.793C302.125 136.656 302.33 136.467 302.486 136.227C302.643 135.979 302.757 135.693 302.828 135.367C302.906 135.035 302.945 134.677 302.945 134.293C302.945 133.909 302.9 133.561 302.809 133.248C302.717 132.936 302.577 132.665 302.389 132.438C302.2 132.21 301.959 132.034 301.666 131.91C301.38 131.786 301.044 131.725 300.66 131.725C300.139 131.725 299.736 131.806 299.449 131.969C299.169 132.132 298.935 132.317 298.746 132.525ZM317.154 130.641V133.102C317.154 134.169 317.04 135.09 316.812 135.865C316.585 136.633 316.256 137.265 315.826 137.76C315.403 138.248 314.898 138.609 314.312 138.844C313.727 139.078 313.076 139.195 312.359 139.195C311.786 139.195 311.253 139.124 310.758 138.98C310.263 138.831 309.817 138.6 309.42 138.287C309.029 137.975 308.691 137.581 308.404 137.105C308.124 136.624 307.91 136.051 307.76 135.387C307.61 134.723 307.535 133.961 307.535 133.102V130.641C307.535 129.573 307.649 128.658 307.877 127.896C308.111 127.128 308.44 126.5 308.863 126.012C309.293 125.523 309.801 125.165 310.387 124.938C310.973 124.703 311.624 124.586 312.34 124.586C312.913 124.586 313.443 124.661 313.932 124.811C314.426 124.954 314.872 125.178 315.27 125.484C315.667 125.79 316.005 126.184 316.285 126.666C316.565 127.141 316.78 127.711 316.93 128.375C317.079 129.033 317.154 129.788 317.154 130.641ZM314.332 133.473V130.26C314.332 129.745 314.303 129.296 314.244 128.912C314.192 128.528 314.111 128.202 314 127.936C313.889 127.662 313.753 127.441 313.59 127.271C313.427 127.102 313.242 126.979 313.033 126.9C312.825 126.822 312.594 126.783 312.34 126.783C312.021 126.783 311.738 126.845 311.49 126.969C311.249 127.092 311.044 127.291 310.875 127.564C310.706 127.831 310.576 128.189 310.484 128.639C310.4 129.081 310.357 129.622 310.357 130.26V133.473C310.357 133.987 310.383 134.439 310.436 134.83C310.494 135.221 310.579 135.556 310.689 135.836C310.807 136.109 310.943 136.334 311.1 136.51C311.262 136.679 311.448 136.803 311.656 136.881C311.871 136.959 312.105 136.998 312.359 136.998C312.672 136.998 312.949 136.936 313.189 136.812C313.437 136.682 313.645 136.48 313.814 136.207C313.99 135.927 314.12 135.562 314.205 135.113C314.29 134.664 314.332 134.117 314.332 133.473ZM319.029 128.268V127.516C319.029 126.975 319.146 126.484 319.381 126.041C319.615 125.598 319.96 125.243 320.416 124.977C320.872 124.71 321.432 124.576 322.096 124.576C322.779 124.576 323.349 124.71 323.805 124.977C324.267 125.243 324.612 125.598 324.84 126.041C325.074 126.484 325.191 126.975 325.191 127.516V128.268C325.191 128.795 325.074 129.28 324.84 129.723C324.612 130.165 324.27 130.52 323.814 130.787C323.359 131.054 322.796 131.188 322.125 131.188C321.448 131.188 320.878 131.054 320.416 130.787C319.96 130.52 319.615 130.165 319.381 129.723C319.146 129.28 319.029 128.795 319.029 128.268ZM320.895 127.516V128.268C320.895 128.495 320.937 128.714 321.021 128.922C321.113 129.124 321.249 129.29 321.432 129.42C321.62 129.544 321.848 129.605 322.115 129.605C322.395 129.605 322.623 129.544 322.799 129.42C322.975 129.29 323.105 129.124 323.189 128.922C323.274 128.714 323.316 128.495 323.316 128.268V127.516C323.316 127.275 323.271 127.053 323.18 126.852C323.095 126.643 322.962 126.477 322.779 126.354C322.604 126.223 322.376 126.158 322.096 126.158C321.835 126.158 321.614 126.223 321.432 126.354C321.249 126.477 321.113 126.643 321.021 126.852C320.937 127.053 320.895 127.275 320.895 127.516ZM325.826 136.266V135.514C325.826 134.98 325.943 134.492 326.178 134.049C326.419 133.606 326.767 133.251 327.223 132.984C327.685 132.717 328.251 132.584 328.922 132.584C329.599 132.584 330.165 132.717 330.621 132.984C331.077 133.251 331.422 133.606 331.656 134.049C331.891 134.492 332.008 134.98 332.008 135.514V136.266C332.008 136.799 331.891 137.288 331.656 137.73C331.428 138.173 331.087 138.528 330.631 138.795C330.175 139.062 329.612 139.195 328.941 139.195C328.264 139.195 327.695 139.062 327.232 138.795C326.77 138.528 326.419 138.173 326.178 137.73C325.943 137.288 325.826 136.799 325.826 136.266ZM327.701 135.514V136.266C327.701 136.5 327.753 136.721 327.857 136.93C327.962 137.138 328.105 137.304 328.287 137.428C328.476 137.551 328.694 137.613 328.941 137.613C329.254 137.613 329.498 137.551 329.674 137.428C329.85 137.304 329.97 137.138 330.035 136.93C330.107 136.721 330.143 136.5 330.143 136.266V135.514C330.143 135.279 330.097 135.061 330.006 134.859C329.915 134.651 329.778 134.485 329.596 134.361C329.42 134.231 329.195 134.166 328.922 134.166C328.648 134.166 328.421 134.231 328.238 134.361C328.062 134.485 327.929 134.651 327.838 134.859C327.747 135.061 327.701 135.279 327.701 135.514ZM329.615 126.812L322.672 137.926L321.305 137.203L328.248 126.09L329.615 126.812Z" fill="#0A0A0A"/>
<path d="M386 132C386 171.765 353.765 204 314 204C274.235 204 242 171.765 242 132C242 92.2355 274.235 60 314 60C353.765 60 386 92.2355 386 132ZM256.4 132C256.4 163.812 282.188 189.6 314 189.6C345.812 189.6 371.6 163.812 371.6 132C371.6 100.188 345.812 74.4 314 74.4C282.188 74.4 256.4 100.188 256.4 132Z" fill="white"/>
<path d="M314 60C324.249 60 334.38 62.188 343.715 66.4178C353.05 70.6476 361.375 76.8216 368.133 84.5271C374.89 92.2326 379.925 101.292 382.9 111.099C385.875 120.907 386.722 131.237 385.384 141.398C384.046 151.559 380.555 161.318 375.143 170.021C369.731 178.724 362.523 186.172 354.001 191.866C345.48 197.56 335.841 201.369 325.729 203.038C315.617 204.708 305.265 204.199 295.365 201.547L299.092 187.637C307.012 189.759 315.293 190.166 323.383 188.831C331.473 187.495 339.184 184.448 346.001 179.893C352.818 175.337 358.585 169.379 362.914 162.417C367.244 155.454 370.037 147.647 371.107 139.518C372.178 131.389 371.5 123.126 369.12 115.28C366.74 107.434 362.712 100.186 357.306 94.0217C351.9 87.8573 345.24 82.9181 337.772 79.5342C330.304 76.1504 322.199 74.4 314 74.4V60Z" fill="url(#paint0_linear_0_1)"/>
<path d="M430.12 130.97V128.24H443.38V130.97H430.12ZM430.12 136.04V133.31H443.38V136.04H430.12Z" fill="black"/>
<path d="M542.721 119.803C542.721 119.627 542.693 119.471 542.639 119.334C542.588 119.197 542.496 119.072 542.363 118.959C542.23 118.846 542.043 118.736 541.801 118.631C541.562 118.521 541.258 118.41 540.887 118.297C540.48 118.172 540.105 118.033 539.762 117.881C539.422 117.725 539.125 117.545 538.871 117.342C538.617 117.135 538.42 116.898 538.279 116.633C538.139 116.363 538.068 116.053 538.068 115.701C538.068 115.354 538.141 115.037 538.285 114.752C538.434 114.467 538.643 114.221 538.912 114.014C539.186 113.803 539.508 113.641 539.879 113.527C540.25 113.41 540.66 113.352 541.109 113.352C541.742 113.352 542.287 113.469 542.744 113.703C543.205 113.938 543.559 114.252 543.805 114.646C544.055 115.041 544.18 115.477 544.18 115.953H542.721C542.721 115.672 542.66 115.424 542.539 115.209C542.422 114.99 542.242 114.818 542 114.693C541.762 114.568 541.459 114.506 541.092 114.506C540.744 114.506 540.455 114.559 540.225 114.664C539.994 114.77 539.822 114.912 539.709 115.092C539.596 115.271 539.539 115.475 539.539 115.701C539.539 115.861 539.576 116.008 539.65 116.141C539.725 116.27 539.838 116.391 539.99 116.504C540.143 116.613 540.334 116.717 540.564 116.814C540.795 116.912 541.066 117.006 541.379 117.096C541.852 117.236 542.264 117.393 542.615 117.564C542.967 117.732 543.26 117.924 543.494 118.139C543.729 118.354 543.904 118.598 544.021 118.871C544.139 119.141 544.197 119.447 544.197 119.791C544.197 120.15 544.125 120.475 543.98 120.764C543.836 121.049 543.629 121.293 543.359 121.496C543.094 121.695 542.773 121.85 542.398 121.959C542.027 122.064 541.613 122.117 541.156 122.117C540.746 122.117 540.342 122.062 539.943 121.953C539.549 121.844 539.189 121.678 538.865 121.455C538.541 121.229 538.283 120.947 538.092 120.611C537.9 120.271 537.805 119.875 537.805 119.422H539.275C539.275 119.699 539.322 119.936 539.416 120.131C539.514 120.326 539.648 120.486 539.82 120.611C539.992 120.732 540.191 120.822 540.418 120.881C540.648 120.939 540.895 120.969 541.156 120.969C541.5 120.969 541.787 120.92 542.018 120.822C542.252 120.725 542.428 120.588 542.545 120.412C542.662 120.236 542.721 120.033 542.721 119.803ZM549.172 120.506V115.66H550.59V122H549.254L549.172 120.506ZM549.371 119.188L549.846 119.176C549.846 119.602 549.799 119.994 549.705 120.354C549.611 120.709 549.467 121.02 549.271 121.285C549.076 121.547 548.826 121.752 548.521 121.9C548.217 122.045 547.852 122.117 547.426 122.117C547.117 122.117 546.834 122.072 546.576 121.982C546.318 121.893 546.096 121.754 545.908 121.566C545.725 121.379 545.582 121.135 545.48 120.834C545.379 120.533 545.328 120.174 545.328 119.756V115.66H546.74V119.768C546.74 119.998 546.768 120.191 546.822 120.348C546.877 120.5 546.951 120.623 547.045 120.717C547.139 120.811 547.248 120.877 547.373 120.916C547.498 120.955 547.631 120.975 547.771 120.975C548.174 120.975 548.49 120.896 548.721 120.74C548.955 120.58 549.121 120.365 549.219 120.096C549.32 119.826 549.371 119.523 549.371 119.188ZM554.627 120.992C554.857 120.992 555.064 120.947 555.248 120.857C555.436 120.764 555.586 120.635 555.699 120.471C555.816 120.307 555.881 120.117 555.893 119.902H557.223C557.215 120.312 557.094 120.686 556.859 121.021C556.625 121.357 556.314 121.625 555.928 121.824C555.541 122.02 555.113 122.117 554.645 122.117C554.16 122.117 553.738 122.035 553.379 121.871C553.02 121.703 552.721 121.473 552.482 121.18C552.244 120.887 552.064 120.549 551.943 120.166C551.826 119.783 551.768 119.373 551.768 118.936V118.73C551.768 118.293 551.826 117.883 551.943 117.5C552.064 117.113 552.244 116.773 552.482 116.48C552.721 116.188 553.02 115.959 553.379 115.795C553.738 115.627 554.158 115.543 554.639 115.543C555.146 115.543 555.592 115.645 555.975 115.848C556.357 116.047 556.658 116.326 556.877 116.686C557.1 117.041 557.215 117.455 557.223 117.928H555.893C555.881 117.693 555.822 117.482 555.717 117.295C555.615 117.104 555.471 116.951 555.283 116.838C555.1 116.725 554.879 116.668 554.621 116.668C554.336 116.668 554.1 116.727 553.912 116.844C553.725 116.957 553.578 117.113 553.473 117.312C553.367 117.508 553.291 117.729 553.244 117.975C553.201 118.217 553.18 118.469 553.18 118.73V118.936C553.18 119.197 553.201 119.451 553.244 119.697C553.287 119.943 553.361 120.164 553.467 120.359C553.576 120.551 553.725 120.705 553.912 120.822C554.1 120.936 554.338 120.992 554.627 120.992ZM560.896 120.992C561.127 120.992 561.334 120.947 561.518 120.857C561.705 120.764 561.855 120.635 561.969 120.471C562.086 120.307 562.15 120.117 562.162 119.902H563.492C563.484 120.312 563.363 120.686 563.129 121.021C562.895 121.357 562.584 121.625 562.197 121.824C561.811 122.02 561.383 122.117 560.914 122.117C560.43 122.117 560.008 122.035 559.648 121.871C559.289 121.703 558.99 121.473 558.752 121.18C558.514 120.887 558.334 120.549 558.213 120.166C558.096 119.783 558.037 119.373 558.037 118.936V118.73C558.037 118.293 558.096 117.883 558.213 117.5C558.334 117.113 558.514 116.773 558.752 116.48C558.99 116.188 559.289 115.959 559.648 115.795C560.008 115.627 560.428 115.543 560.908 115.543C561.416 115.543 561.861 115.645 562.244 115.848C562.627 116.047 562.928 116.326 563.146 116.686C563.369 117.041 563.484 117.455 563.492 117.928H562.162C562.15 117.693 562.092 117.482 561.986 117.295C561.885 117.104 561.74 116.951 561.553 116.838C561.369 116.725 561.148 116.668 560.891 116.668C560.605 116.668 560.369 116.727 560.182 116.844C559.994 116.957 559.848 117.113 559.742 117.312C559.637 117.508 559.561 117.729 559.514 117.975C559.471 118.217 559.449 118.469 559.449 118.73V118.936C559.449 119.197 559.471 119.451 559.514 119.697C559.557 119.943 559.631 120.164 559.736 120.359C559.846 120.551 559.994 120.705 560.182 120.822C560.369 120.936 560.607 120.992 560.896 120.992ZM567.371 122.117C566.902 122.117 566.479 122.041 566.1 121.889C565.725 121.732 565.404 121.516 565.139 121.238C564.877 120.961 564.676 120.635 564.535 120.26C564.395 119.885 564.324 119.48 564.324 119.047V118.812C564.324 118.316 564.396 117.867 564.541 117.465C564.686 117.062 564.887 116.719 565.145 116.434C565.402 116.145 565.707 115.924 566.059 115.771C566.41 115.619 566.791 115.543 567.201 115.543C567.654 115.543 568.051 115.619 568.391 115.771C568.73 115.924 569.012 116.139 569.234 116.416C569.461 116.689 569.629 117.016 569.738 117.395C569.852 117.773 569.908 118.191 569.908 118.648V119.252H565.01V118.238H568.514V118.127C568.506 117.873 568.455 117.635 568.361 117.412C568.271 117.189 568.133 117.01 567.945 116.873C567.758 116.736 567.508 116.668 567.195 116.668C566.961 116.668 566.752 116.719 566.568 116.82C566.389 116.918 566.238 117.061 566.117 117.248C565.996 117.436 565.902 117.662 565.836 117.928C565.773 118.189 565.742 118.484 565.742 118.812V119.047C565.742 119.324 565.779 119.582 565.854 119.82C565.932 120.055 566.045 120.26 566.193 120.436C566.342 120.611 566.521 120.75 566.732 120.852C566.943 120.949 567.184 120.998 567.453 120.998C567.793 120.998 568.096 120.93 568.361 120.793C568.627 120.656 568.857 120.463 569.053 120.213L569.797 120.934C569.66 121.133 569.482 121.324 569.264 121.508C569.045 121.688 568.777 121.834 568.461 121.947C568.148 122.061 567.785 122.117 567.371 122.117ZM574.566 120.283C574.566 120.143 574.531 120.016 574.461 119.902C574.391 119.785 574.256 119.68 574.057 119.586C573.861 119.492 573.572 119.406 573.189 119.328C572.854 119.254 572.545 119.166 572.264 119.064C571.986 118.959 571.748 118.832 571.549 118.684C571.35 118.535 571.195 118.359 571.086 118.156C570.977 117.953 570.922 117.719 570.922 117.453C570.922 117.195 570.979 116.951 571.092 116.721C571.205 116.49 571.367 116.287 571.578 116.111C571.789 115.936 572.045 115.797 572.346 115.695C572.65 115.594 572.99 115.543 573.365 115.543C573.896 115.543 574.352 115.633 574.73 115.812C575.113 115.988 575.406 116.229 575.609 116.533C575.812 116.834 575.914 117.174 575.914 117.553H574.502C574.502 117.385 574.459 117.229 574.373 117.084C574.291 116.936 574.166 116.816 573.998 116.727C573.83 116.633 573.619 116.586 573.365 116.586C573.123 116.586 572.922 116.625 572.762 116.703C572.605 116.777 572.488 116.875 572.41 116.996C572.336 117.117 572.299 117.25 572.299 117.395C572.299 117.5 572.318 117.596 572.357 117.682C572.4 117.764 572.471 117.84 572.568 117.91C572.666 117.977 572.799 118.039 572.967 118.098C573.139 118.156 573.354 118.213 573.611 118.268C574.096 118.369 574.512 118.5 574.859 118.66C575.211 118.816 575.48 119.02 575.668 119.27C575.855 119.516 575.949 119.828 575.949 120.207C575.949 120.488 575.889 120.746 575.768 120.98C575.65 121.211 575.479 121.412 575.252 121.584C575.025 121.752 574.754 121.883 574.438 121.977C574.125 122.07 573.773 122.117 573.383 122.117C572.809 122.117 572.322 122.016 571.924 121.812C571.525 121.605 571.223 121.342 571.016 121.021C570.812 120.697 570.711 120.361 570.711 120.014H572.076C572.092 120.275 572.164 120.484 572.293 120.641C572.426 120.793 572.59 120.904 572.785 120.975C572.984 121.041 573.189 121.074 573.4 121.074C573.654 121.074 573.867 121.041 574.039 120.975C574.211 120.904 574.342 120.811 574.432 120.693C574.521 120.572 574.566 120.436 574.566 120.283ZM580.742 120.283C580.742 120.143 580.707 120.016 580.637 119.902C580.566 119.785 580.432 119.68 580.232 119.586C580.037 119.492 579.748 119.406 579.365 119.328C579.029 119.254 578.721 119.166 578.439 119.064C578.162 118.959 577.924 118.832 577.725 118.684C577.525 118.535 577.371 118.359 577.262 118.156C577.152 117.953 577.098 117.719 577.098 117.453C577.098 117.195 577.154 116.951 577.268 116.721C577.381 116.49 577.543 116.287 577.754 116.111C577.965 115.936 578.221 115.797 578.521 115.695C578.826 115.594 579.166 115.543 579.541 115.543C580.072 115.543 580.527 115.633 580.906 115.812C581.289 115.988 581.582 116.229 581.785 116.533C581.988 116.834 582.09 117.174 582.09 117.553H580.678C580.678 117.385 580.635 117.229 580.549 117.084C580.467 116.936 580.342 116.816 580.174 116.727C580.006 116.633 579.795 116.586 579.541 116.586C579.299 116.586 579.098 116.625 578.938 116.703C578.781 116.777 578.664 116.875 578.586 116.996C578.512 117.117 578.475 117.25 578.475 117.395C578.475 117.5 578.494 117.596 578.533 117.682C578.576 117.764 578.646 117.84 578.744 117.91C578.842 117.977 578.975 118.039 579.143 118.098C579.314 118.156 579.529 118.213 579.787 118.268C580.271 118.369 580.688 118.5 581.035 118.66C581.387 118.816 581.656 119.02 581.844 119.27C582.031 119.516 582.125 119.828 582.125 120.207C582.125 120.488 582.064 120.746 581.943 120.98C581.826 121.211 581.654 121.412 581.428 121.584C581.201 121.752 580.93 121.883 580.613 121.977C580.301 122.07 579.949 122.117 579.559 122.117C578.984 122.117 578.498 122.016 578.1 121.812C577.701 121.605 577.398 121.342 577.191 121.021C576.988 120.697 576.887 120.361 576.887 120.014H578.252C578.268 120.275 578.34 120.484 578.469 120.641C578.602 120.793 578.766 120.904 578.961 120.975C579.16 121.041 579.365 121.074 579.576 121.074C579.83 121.074 580.043 121.041 580.215 120.975C580.387 120.904 580.518 120.811 580.607 120.693C580.697 120.572 580.742 120.436 580.742 120.283Z" fill="#737373"/>
<path d="M543.213 134.752V149H540.4V137.994L537.021 139.068V136.852L542.91 134.752H543.213ZM557.412 140.641V143.102C557.412 144.169 557.298 145.09 557.07 145.865C556.842 146.633 556.514 147.265 556.084 147.76C555.661 148.248 555.156 148.609 554.57 148.844C553.984 149.078 553.333 149.195 552.617 149.195C552.044 149.195 551.51 149.124 551.016 148.98C550.521 148.831 550.075 148.6 549.678 148.287C549.287 147.975 548.949 147.581 548.662 147.105C548.382 146.624 548.167 146.051 548.018 145.387C547.868 144.723 547.793 143.961 547.793 143.102V140.641C547.793 139.573 547.907 138.658 548.135 137.896C548.369 137.128 548.698 136.5 549.121 136.012C549.551 135.523 550.059 135.165 550.645 134.938C551.23 134.703 551.882 134.586 552.598 134.586C553.171 134.586 553.701 134.661 554.189 134.811C554.684 134.954 555.13 135.178 555.527 135.484C555.924 135.79 556.263 136.184 556.543 136.666C556.823 137.141 557.038 137.711 557.188 138.375C557.337 139.033 557.412 139.788 557.412 140.641ZM554.59 143.473V140.26C554.59 139.745 554.561 139.296 554.502 138.912C554.45 138.528 554.368 138.202 554.258 137.936C554.147 137.662 554.01 137.441 553.848 137.271C553.685 137.102 553.499 136.979 553.291 136.9C553.083 136.822 552.852 136.783 552.598 136.783C552.279 136.783 551.995 136.845 551.748 136.969C551.507 137.092 551.302 137.291 551.133 137.564C550.964 137.831 550.833 138.189 550.742 138.639C550.658 139.081 550.615 139.622 550.615 140.26V143.473C550.615 143.987 550.641 144.439 550.693 144.83C550.752 145.221 550.837 145.556 550.947 145.836C551.064 146.109 551.201 146.334 551.357 146.51C551.52 146.679 551.706 146.803 551.914 146.881C552.129 146.959 552.363 146.998 552.617 146.998C552.93 146.998 553.206 146.936 553.447 146.812C553.695 146.682 553.903 146.48 554.072 146.207C554.248 145.927 554.378 145.562 554.463 145.113C554.548 144.664 554.59 144.117 554.59 143.473ZM568.896 140.641V143.102C568.896 144.169 568.783 145.09 568.555 145.865C568.327 146.633 567.998 147.265 567.568 147.76C567.145 148.248 566.641 148.609 566.055 148.844C565.469 149.078 564.818 149.195 564.102 149.195C563.529 149.195 562.995 149.124 562.5 148.98C562.005 148.831 561.559 148.6 561.162 148.287C560.771 147.975 560.433 147.581 560.146 147.105C559.867 146.624 559.652 146.051 559.502 145.387C559.352 144.723 559.277 143.961 559.277 143.102V140.641C559.277 139.573 559.391 138.658 559.619 137.896C559.854 137.128 560.182 136.5 560.605 136.012C561.035 135.523 561.543 135.165 562.129 134.938C562.715 134.703 563.366 134.586 564.082 134.586C564.655 134.586 565.186 134.661 565.674 134.811C566.169 134.954 566.615 135.178 567.012 135.484C567.409 135.79 567.747 136.184 568.027 136.666C568.307 137.141 568.522 137.711 568.672 138.375C568.822 139.033 568.896 139.788 568.896 140.641ZM566.074 143.473V140.26C566.074 139.745 566.045 139.296 565.986 138.912C565.934 138.528 565.853 138.202 565.742 137.936C565.632 137.662 565.495 137.441 565.332 137.271C565.169 137.102 564.984 136.979 564.775 136.9C564.567 136.822 564.336 136.783 564.082 136.783C563.763 136.783 563.48 136.845 563.232 136.969C562.992 137.092 562.786 137.291 562.617 137.564C562.448 137.831 562.318 138.189 562.227 138.639C562.142 139.081 562.1 139.622 562.1 140.26V143.473C562.1 143.987 562.126 144.439 562.178 144.83C562.236 145.221 562.321 145.556 562.432 145.836C562.549 146.109 562.686 146.334 562.842 146.51C563.005 146.679 563.19 146.803 563.398 146.881C563.613 146.959 563.848 146.998 564.102 146.998C564.414 146.998 564.691 146.936 564.932 146.812C565.179 146.682 565.387 146.48 565.557 146.207C565.732 145.927 565.863 145.562 565.947 145.113C566.032 144.664 566.074 144.117 566.074 143.473ZM570.771 138.268V137.516C570.771 136.975 570.889 136.484 571.123 136.041C571.357 135.598 571.702 135.243 572.158 134.977C572.614 134.71 573.174 134.576 573.838 134.576C574.521 134.576 575.091 134.71 575.547 134.977C576.009 135.243 576.354 135.598 576.582 136.041C576.816 136.484 576.934 136.975 576.934 137.516V138.268C576.934 138.795 576.816 139.28 576.582 139.723C576.354 140.165 576.012 140.52 575.557 140.787C575.101 141.054 574.538 141.188 573.867 141.188C573.19 141.188 572.62 141.054 572.158 140.787C571.702 140.52 571.357 140.165 571.123 139.723C570.889 139.28 570.771 138.795 570.771 138.268ZM572.637 137.516V138.268C572.637 138.495 572.679 138.714 572.764 138.922C572.855 139.124 572.992 139.29 573.174 139.42C573.363 139.544 573.59 139.605 573.857 139.605C574.137 139.605 574.365 139.544 574.541 139.42C574.717 139.29 574.847 139.124 574.932 138.922C575.016 138.714 575.059 138.495 575.059 138.268V137.516C575.059 137.275 575.013 137.053 574.922 136.852C574.837 136.643 574.704 136.477 574.521 136.354C574.346 136.223 574.118 136.158 573.838 136.158C573.577 136.158 573.356 136.223 573.174 136.354C572.992 136.477 572.855 136.643 572.764 136.852C572.679 137.053 572.637 137.275 572.637 137.516ZM577.568 146.266V145.514C577.568 144.98 577.686 144.492 577.92 144.049C578.161 143.606 578.509 143.251 578.965 142.984C579.427 142.717 579.993 142.584 580.664 142.584C581.341 142.584 581.908 142.717 582.363 142.984C582.819 143.251 583.164 143.606 583.398 144.049C583.633 144.492 583.75 144.98 583.75 145.514V146.266C583.75 146.799 583.633 147.288 583.398 147.73C583.171 148.173 582.829 148.528 582.373 148.795C581.917 149.062 581.354 149.195 580.684 149.195C580.007 149.195 579.437 149.062 578.975 148.795C578.512 148.528 578.161 148.173 577.92 147.73C577.686 147.288 577.568 146.799 577.568 146.266ZM579.443 145.514V146.266C579.443 146.5 579.495 146.721 579.6 146.93C579.704 147.138 579.847 147.304 580.029 147.428C580.218 147.551 580.436 147.613 580.684 147.613C580.996 147.613 581.24 147.551 581.416 147.428C581.592 147.304 581.712 147.138 581.777 146.93C581.849 146.721 581.885 146.5 581.885 146.266V145.514C581.885 145.279 581.839 145.061 581.748 144.859C581.657 144.651 581.52 144.485 581.338 144.361C581.162 144.231 580.938 144.166 580.664 144.166C580.391 144.166 580.163 144.231 579.98 144.361C579.805 144.485 579.671 144.651 579.58 144.859C579.489 145.061 579.443 145.279 579.443 145.514ZM581.357 136.812L574.414 147.926L573.047 147.203L579.99 136.09L581.357 136.812Z" fill="#0A0A0A"/>
<path d="M632 132C632 171.765 599.765 204 560 204C520.235 204 488 171.765 488 132C488 92.2355 520.235 60 560 60C599.765 60 632 92.2355 632 132ZM502.4 132C502.4 163.812 528.188 189.6 560 189.6C591.812 189.6 617.6 163.812 617.6 132C617.6 100.188 591.812 74.4 560 74.4C528.188 74.4 502.4 100.188 502.4 132Z" fill="url(#paint1_linear_0_1)"/>
<path d="M497.622 2.9082L493.799 14H491.487L496.304 1.20312H497.78L497.622 2.9082ZM500.821 14L496.989 2.9082L496.822 1.20312H498.308L503.142 14H500.821ZM500.637 9.25391V11.0029H493.676V9.25391H500.637ZM506.323 6.42383V14H504.205V4.49023H506.2L506.323 6.42383ZM505.98 8.89355L505.26 8.88477C505.26 8.22852 505.342 7.62207 505.506 7.06543C505.67 6.50879 505.91 6.02539 506.227 5.61523C506.543 5.19922 506.936 4.87988 507.404 4.65723C507.879 4.42871 508.427 4.31445 509.048 4.31445C509.481 4.31445 509.877 4.37891 510.234 4.50781C510.598 4.63086 510.911 4.82715 511.175 5.09668C511.444 5.36621 511.649 5.71191 511.79 6.13379C511.937 6.55566 512.01 7.06543 512.01 7.66309V14H509.892V7.84766C509.892 7.38477 509.821 7.02148 509.681 6.75781C509.546 6.49414 509.35 6.30664 509.092 6.19531C508.84 6.07812 508.538 6.01953 508.187 6.01953C507.788 6.01953 507.448 6.0957 507.167 6.24805C506.892 6.40039 506.666 6.6084 506.49 6.87207C506.314 7.13574 506.186 7.44043 506.104 7.78613C506.021 8.13184 505.98 8.50098 505.98 8.89355ZM511.878 8.33105L510.885 8.55078C510.885 7.97656 510.964 7.43457 511.122 6.9248C511.286 6.40918 511.523 5.95801 511.834 5.57129C512.15 5.17871 512.54 4.87109 513.003 4.64844C513.466 4.42578 513.996 4.31445 514.594 4.31445C515.08 4.31445 515.514 4.38184 515.895 4.5166C516.281 4.64551 516.609 4.85059 516.879 5.13184C517.148 5.41309 517.354 5.7793 517.494 6.23047C517.635 6.67578 517.705 7.21484 517.705 7.84766V14H515.578V7.83887C515.578 7.3584 515.508 6.98633 515.367 6.72266C515.232 6.45898 515.039 6.27734 514.787 6.17773C514.535 6.07227 514.233 6.01953 513.882 6.01953C513.554 6.01953 513.264 6.08105 513.012 6.2041C512.766 6.32129 512.558 6.48828 512.388 6.70508C512.218 6.91602 512.089 7.15918 512.001 7.43457C511.919 7.70996 511.878 8.00879 511.878 8.33105ZM524.077 14.1758C523.374 14.1758 522.738 14.0615 522.17 13.833C521.607 13.5986 521.127 13.2734 520.729 12.8574C520.336 12.4414 520.034 11.9521 519.823 11.3896C519.612 10.8271 519.507 10.2207 519.507 9.57031V9.21875C519.507 8.47461 519.615 7.80078 519.832 7.19727C520.049 6.59375 520.351 6.07812 520.737 5.65039C521.124 5.2168 521.581 4.88574 522.108 4.65723C522.636 4.42871 523.207 4.31445 523.822 4.31445C524.502 4.31445 525.097 4.42871 525.606 4.65723C526.116 4.88574 526.538 5.20801 526.872 5.62402C527.212 6.03418 527.464 6.52344 527.628 7.0918C527.798 7.66016 527.883 8.28711 527.883 8.97266V9.87793H520.535V8.35742H525.791V8.19043C525.779 7.80957 525.703 7.45215 525.562 7.11816C525.428 6.78418 525.22 6.51465 524.938 6.30957C524.657 6.10449 524.282 6.00195 523.813 6.00195C523.462 6.00195 523.148 6.07812 522.873 6.23047C522.604 6.37695 522.378 6.59082 522.196 6.87207C522.015 7.15332 521.874 7.49316 521.774 7.8916C521.681 8.28418 521.634 8.72656 521.634 9.21875V9.57031C521.634 9.98633 521.689 10.373 521.801 10.7305C521.918 11.082 522.088 11.3896 522.311 11.6533C522.533 11.917 522.803 12.125 523.119 12.2773C523.436 12.4238 523.796 12.4971 524.2 12.4971C524.71 12.4971 525.164 12.3945 525.562 12.1895C525.961 11.9844 526.307 11.6943 526.6 11.3193L527.716 12.4004C527.511 12.6992 527.244 12.9863 526.916 13.2617C526.588 13.5312 526.187 13.751 525.712 13.9209C525.243 14.0908 524.698 14.1758 524.077 14.1758ZM531.662 6.30078V14H529.544V4.49023H531.565L531.662 6.30078ZM534.571 4.42871L534.554 6.39746C534.425 6.37402 534.284 6.35645 534.132 6.34473C533.985 6.33301 533.839 6.32715 533.692 6.32715C533.329 6.32715 533.01 6.37988 532.734 6.48535C532.459 6.58496 532.228 6.73145 532.04 6.9248C531.858 7.1123 531.718 7.34082 531.618 7.61035C531.519 7.87988 531.46 8.18164 531.442 8.51562L530.959 8.55078C530.959 7.95312 531.018 7.39941 531.135 6.88965C531.252 6.37988 531.428 5.93164 531.662 5.54492C531.902 5.1582 532.201 4.85645 532.559 4.63965C532.922 4.42285 533.341 4.31445 533.815 4.31445C533.944 4.31445 534.082 4.32617 534.229 4.34961C534.381 4.37305 534.495 4.39941 534.571 4.42871ZM538.166 4.49023V14H536.039V4.49023H538.166ZM535.898 1.99414C535.898 1.67187 536.004 1.40527 536.215 1.19434C536.432 0.977539 536.73 0.869141 537.111 0.869141C537.486 0.869141 537.782 0.977539 537.999 1.19434C538.216 1.40527 538.324 1.67187 538.324 1.99414C538.324 2.31055 538.216 2.57422 537.999 2.78516C537.782 2.99609 537.486 3.10156 537.111 3.10156C536.73 3.10156 536.432 2.99609 536.215 2.78516C536.004 2.57422 535.898 2.31055 535.898 1.99414ZM544.371 12.4883C544.717 12.4883 545.027 12.4209 545.303 12.2861C545.584 12.1455 545.81 11.9521 545.979 11.7061C546.155 11.46 546.252 11.1758 546.27 10.8535H548.265C548.253 11.4688 548.071 12.0283 547.72 12.5322C547.368 13.0361 546.902 13.4375 546.322 13.7363C545.742 14.0293 545.101 14.1758 544.397 14.1758C543.671 14.1758 543.038 14.0527 542.499 13.8066C541.96 13.5547 541.512 13.209 541.154 12.7695C540.797 12.3301 540.527 11.8232 540.346 11.249C540.17 10.6748 540.082 10.0596 540.082 9.40332V9.0957C540.082 8.43945 540.17 7.82422 540.346 7.25C540.527 6.66992 540.797 6.16016 541.154 5.7207C541.512 5.28125 541.96 4.93848 542.499 4.69238C543.038 4.44043 543.668 4.31445 544.389 4.31445C545.15 4.31445 545.818 4.4668 546.393 4.77148C546.967 5.07031 547.418 5.48926 547.746 6.02832C548.08 6.56152 548.253 7.18262 548.265 7.8916H546.27C546.252 7.54004 546.164 7.22363 546.006 6.94238C545.854 6.65527 545.637 6.42676 545.355 6.25684C545.08 6.08691 544.749 6.00195 544.362 6.00195C543.935 6.00195 543.58 6.08984 543.299 6.26562C543.018 6.43555 542.798 6.66992 542.64 6.96875C542.481 7.26172 542.367 7.59277 542.297 7.96191C542.232 8.3252 542.2 8.70312 542.2 9.0957V9.40332C542.2 9.7959 542.232 10.1768 542.297 10.5459C542.361 10.915 542.473 11.2461 542.631 11.5391C542.795 11.8262 543.018 12.0576 543.299 12.2334C543.58 12.4033 543.938 12.4883 544.371 12.4883ZM555.252 12.0928V7.55762C555.252 7.21777 555.19 6.9248 555.067 6.67871C554.944 6.43262 554.757 6.24219 554.505 6.10742C554.259 5.97266 553.948 5.90527 553.573 5.90527C553.228 5.90527 552.929 5.96387 552.677 6.08105C552.425 6.19824 552.229 6.35645 552.088 6.55566C551.947 6.75488 551.877 6.98047 551.877 7.23242H549.768C549.768 6.85742 549.858 6.49414 550.04 6.14258C550.222 5.79102 550.485 5.47754 550.831 5.20215C551.177 4.92676 551.59 4.70996 552.07 4.55176C552.551 4.39355 553.09 4.31445 553.688 4.31445C554.402 4.31445 555.035 4.43457 555.586 4.6748C556.143 4.91504 556.579 5.27832 556.896 5.76465C557.218 6.24512 557.379 6.84863 557.379 7.5752V11.8027C557.379 12.2363 557.408 12.626 557.467 12.9717C557.531 13.3115 557.622 13.6074 557.739 13.8594V14H555.568C555.469 13.7715 555.39 13.4814 555.331 13.1299C555.278 12.7725 555.252 12.4268 555.252 12.0928ZM555.56 8.2168L555.577 9.52637H554.057C553.664 9.52637 553.318 9.56445 553.02 9.64062C552.721 9.71094 552.472 9.81641 552.272 9.95703C552.073 10.0977 551.924 10.2676 551.824 10.4668C551.725 10.666 551.675 10.8916 551.675 11.1436C551.675 11.3955 551.733 11.627 551.851 11.8379C551.968 12.043 552.138 12.2041 552.36 12.3213C552.589 12.4385 552.864 12.4971 553.187 12.4971C553.62 12.4971 553.998 12.4092 554.32 12.2334C554.648 12.0518 554.906 11.832 555.094 11.5742C555.281 11.3105 555.381 11.0615 555.393 10.8271L556.078 11.7676C556.008 12.0078 555.888 12.2656 555.718 12.541C555.548 12.8164 555.325 13.0801 555.05 13.332C554.78 13.5781 554.455 13.7803 554.074 13.9385C553.699 14.0967 553.266 14.1758 552.773 14.1758C552.152 14.1758 551.599 14.0527 551.112 13.8066C550.626 13.5547 550.245 13.2178 549.97 12.7959C549.694 12.3682 549.557 11.8848 549.557 11.3457C549.557 10.8418 549.65 10.3965 549.838 10.0098C550.031 9.61719 550.312 9.28906 550.682 9.02539C551.057 8.76172 551.514 8.5625 552.053 8.42773C552.592 8.28711 553.207 8.2168 553.898 8.2168H555.56ZM561.694 6.52051V14H559.576V4.49023H561.571L561.694 6.52051ZM561.316 8.89355L560.631 8.88477C560.637 8.21094 560.73 7.59277 560.912 7.03027C561.1 6.46777 561.357 5.98438 561.686 5.58008C562.02 5.17578 562.418 4.86523 562.881 4.64844C563.344 4.42578 563.859 4.31445 564.428 4.31445C564.885 4.31445 565.298 4.37891 565.667 4.50781C566.042 4.63086 566.361 4.83301 566.625 5.11426C566.895 5.39551 567.1 5.76172 567.24 6.21289C567.381 6.6582 567.451 7.20605 567.451 7.85645V14H565.324V7.84766C565.324 7.39062 565.257 7.03027 565.122 6.7666C564.993 6.49707 564.803 6.30664 564.551 6.19531C564.305 6.07812 563.997 6.01953 563.628 6.01953C563.265 6.01953 562.939 6.0957 562.652 6.24805C562.365 6.40039 562.122 6.6084 561.923 6.87207C561.729 7.13574 561.58 7.44043 561.475 7.78613C561.369 8.13184 561.316 8.50098 561.316 8.89355ZM578.024 14H575.291L575.309 12.251H578.024C578.815 12.251 579.478 12.0781 580.011 11.7324C580.55 11.3867 580.954 10.8916 581.224 10.2471C581.499 9.60254 581.637 8.83496 581.637 7.94434V7.25C581.637 6.55859 581.558 5.94629 581.399 5.41309C581.247 4.87988 581.019 4.43164 580.714 4.06836C580.415 3.70508 580.046 3.42969 579.606 3.24219C579.173 3.05469 578.672 2.96094 578.104 2.96094H575.238V1.20312H578.104C578.953 1.20312 579.729 1.34668 580.433 1.63379C581.136 1.91504 581.742 2.32227 582.252 2.85547C582.768 3.38867 583.163 4.02734 583.438 4.77148C583.714 5.51562 583.852 6.34766 583.852 7.26758V7.94434C583.852 8.86426 583.714 9.69629 583.438 10.4404C583.163 11.1846 582.768 11.8232 582.252 12.3564C581.736 12.8838 581.121 13.291 580.406 13.5781C579.697 13.8594 578.903 14 578.024 14ZM576.513 1.20312V14H574.307V1.20312H576.513ZM588.123 4.49023V14H585.996V4.49023H588.123ZM585.855 1.99414C585.855 1.67187 585.961 1.40527 586.172 1.19434C586.389 0.977539 586.688 0.869141 587.068 0.869141C587.443 0.869141 587.739 0.977539 587.956 1.19434C588.173 1.40527 588.281 1.67187 588.281 1.99414C588.281 2.31055 588.173 2.57422 587.956 2.78516C587.739 2.99609 587.443 3.10156 587.068 3.10156C586.688 3.10156 586.389 2.99609 586.172 2.78516C585.961 2.57422 585.855 2.31055 585.855 1.99414ZM592.57 6.31836V17.6562H590.452V4.49023H592.403L592.57 6.31836ZM598.767 9.15723V9.3418C598.767 10.0332 598.685 10.6748 598.521 11.2666C598.362 11.8525 598.125 12.3652 597.809 12.8047C597.498 13.2383 597.114 13.5752 596.657 13.8154C596.2 14.0557 595.673 14.1758 595.075 14.1758C594.483 14.1758 593.965 14.0674 593.52 13.8506C593.08 13.6279 592.708 13.3145 592.403 12.9102C592.099 12.5059 591.853 12.0312 591.665 11.4863C591.483 10.9355 591.354 10.332 591.278 9.67578V8.96387C591.354 8.2666 591.483 7.63379 591.665 7.06543C591.853 6.49707 592.099 6.00781 592.403 5.59766C592.708 5.1875 593.08 4.87109 593.52 4.64844C593.959 4.42578 594.472 4.31445 595.058 4.31445C595.655 4.31445 596.186 4.43164 596.648 4.66602C597.111 4.89453 597.501 5.22266 597.817 5.65039C598.134 6.07227 598.371 6.58203 598.529 7.17969C598.688 7.77148 598.767 8.43066 598.767 9.15723ZM596.648 9.3418V9.15723C596.648 8.71777 596.607 8.31055 596.525 7.93555C596.443 7.55469 596.314 7.2207 596.139 6.93359C595.963 6.64648 595.737 6.42383 595.462 6.26562C595.192 6.10156 594.867 6.01953 594.486 6.01953C594.111 6.01953 593.789 6.08398 593.52 6.21289C593.25 6.33594 593.024 6.50879 592.843 6.73145C592.661 6.9541 592.521 7.21484 592.421 7.51367C592.321 7.80664 592.251 8.12598 592.21 8.47168V10.1768C592.28 10.5986 592.4 10.9854 592.57 11.3369C592.74 11.6885 592.98 11.9697 593.291 12.1807C593.607 12.3857 594.012 12.4883 594.504 12.4883C594.885 12.4883 595.21 12.4062 595.479 12.2422C595.749 12.0781 595.969 11.8525 596.139 11.5654C596.314 11.2725 596.443 10.9355 596.525 10.5547C596.607 10.1738 596.648 9.76953 596.648 9.3418ZM602.836 0.5V14H600.709V0.5H602.836ZM604.752 9.35059V9.14844C604.752 8.46289 604.852 7.82715 605.051 7.24121C605.25 6.64941 605.537 6.13672 605.912 5.70312C606.293 5.26367 606.756 4.92383 607.301 4.68359C607.852 4.4375 608.473 4.31445 609.164 4.31445C609.861 4.31445 610.482 4.4375 611.027 4.68359C611.578 4.92383 612.044 5.26367 612.425 5.70312C612.806 6.13672 613.096 6.64941 613.295 7.24121C613.494 7.82715 613.594 8.46289 613.594 9.14844V9.35059C613.594 10.0361 613.494 10.6719 613.295 11.2578C613.096 11.8438 612.806 12.3564 612.425 12.7959C612.044 13.2295 611.581 13.5693 611.036 13.8154C610.491 14.0557 609.873 14.1758 609.182 14.1758C608.484 14.1758 607.86 14.0557 607.31 13.8154C606.765 13.5693 606.302 13.2295 605.921 12.7959C605.54 12.3564 605.25 11.8438 605.051 11.2578C604.852 10.6719 604.752 10.0361 604.752 9.35059ZM606.87 9.14844V9.35059C606.87 9.77832 606.914 10.1826 607.002 10.5635C607.09 10.9443 607.228 11.2783 607.415 11.5654C607.603 11.8525 607.843 12.0781 608.136 12.2422C608.429 12.4062 608.777 12.4883 609.182 12.4883C609.574 12.4883 609.914 12.4062 610.201 12.2422C610.494 12.0781 610.734 11.8525 610.922 11.5654C611.109 11.2783 611.247 10.9443 611.335 10.5635C611.429 10.1826 611.476 9.77832 611.476 9.35059V9.14844C611.476 8.72656 611.429 8.32812 611.335 7.95312C611.247 7.57227 611.106 7.23535 610.913 6.94238C610.726 6.64941 610.485 6.4209 610.192 6.25684C609.905 6.08691 609.562 6.00195 609.164 6.00195C608.766 6.00195 608.42 6.08691 608.127 6.25684C607.84 6.4209 607.603 6.64941 607.415 6.94238C607.228 7.23535 607.09 7.57227 607.002 7.95312C606.914 8.32812 606.87 8.72656 606.87 9.14844ZM617.487 6.42383V14H615.369V4.49023H617.364L617.487 6.42383ZM617.145 8.89355L616.424 8.88477C616.424 8.22852 616.506 7.62207 616.67 7.06543C616.834 6.50879 617.074 6.02539 617.391 5.61523C617.707 5.19922 618.1 4.87988 618.568 4.65723C619.043 4.42871 619.591 4.31445 620.212 4.31445C620.646 4.31445 621.041 4.37891 621.398 4.50781C621.762 4.63086 622.075 4.82715 622.339 5.09668C622.608 5.36621 622.813 5.71191 622.954 6.13379C623.101 6.55566 623.174 7.06543 623.174 7.66309V14H621.056V7.84766C621.056 7.38477 620.985 7.02148 620.845 6.75781C620.71 6.49414 620.514 6.30664 620.256 6.19531C620.004 6.07812 619.702 6.01953 619.351 6.01953C618.952 6.01953 618.612 6.0957 618.331 6.24805C618.056 6.40039 617.83 6.6084 617.654 6.87207C617.479 7.13574 617.35 7.44043 617.268 7.78613C617.186 8.13184 617.145 8.50098 617.145 8.89355ZM623.042 8.33105L622.049 8.55078C622.049 7.97656 622.128 7.43457 622.286 6.9248C622.45 6.40918 622.688 5.95801 622.998 5.57129C623.314 5.17871 623.704 4.87109 624.167 4.64844C624.63 4.42578 625.16 4.31445 625.758 4.31445C626.244 4.31445 626.678 4.38184 627.059 4.5166C627.445 4.64551 627.773 4.85059 628.043 5.13184C628.312 5.41309 628.518 5.7793 628.658 6.23047C628.799 6.67578 628.869 7.21484 628.869 7.84766V14H626.742V7.83887C626.742 7.3584 626.672 6.98633 626.531 6.72266C626.396 6.45898 626.203 6.27734 625.951 6.17773C625.699 6.07227 625.397 6.01953 625.046 6.01953C624.718 6.01953 624.428 6.08105 624.176 6.2041C623.93 6.32129 623.722 6.48828 623.552 6.70508C623.382 6.91602 623.253 7.15918 623.165 7.43457C623.083 7.70996 623.042 8.00879 623.042 8.33105ZM636.41 12.0928V7.55762C636.41 7.21777 636.349 6.9248 636.226 6.67871C636.103 6.43262 635.915 6.24219 635.663 6.10742C635.417 5.97266 635.106 5.90527 634.731 5.90527C634.386 5.90527 634.087 5.96387 633.835 6.08105C633.583 6.19824 633.387 6.35645 633.246 6.55566C633.105 6.75488 633.035 6.98047 633.035 7.23242H630.926C630.926 6.85742 631.017 6.49414 631.198 6.14258C631.38 5.79102 631.644 5.47754 631.989 5.20215C632.335 4.92676 632.748 4.70996 633.229 4.55176C633.709 4.39355 634.248 4.31445 634.846 4.31445C635.561 4.31445 636.193 4.43457 636.744 4.6748C637.301 4.91504 637.737 5.27832 638.054 5.76465C638.376 6.24512 638.537 6.84863 638.537 7.5752V11.8027C638.537 12.2363 638.566 12.626 638.625 12.9717C638.689 13.3115 638.78 13.6074 638.897 13.8594V14H636.727C636.627 13.7715 636.548 13.4814 636.489 13.1299C636.437 12.7725 636.41 12.4268 636.41 12.0928ZM636.718 8.2168L636.735 9.52637H635.215C634.822 9.52637 634.477 9.56445 634.178 9.64062C633.879 9.71094 633.63 9.81641 633.431 9.95703C633.231 10.0977 633.082 10.2676 632.982 10.4668C632.883 10.666 632.833 10.8916 632.833 11.1436C632.833 11.3955 632.892 11.627 633.009 11.8379C633.126 12.043 633.296 12.2041 633.519 12.3213C633.747 12.4385 634.022 12.4971 634.345 12.4971C634.778 12.4971 635.156 12.4092 635.479 12.2334C635.807 12.0518 636.064 11.832 636.252 11.5742C636.439 11.3105 636.539 11.0615 636.551 10.8271L637.236 11.7676C637.166 12.0078 637.046 12.2656 636.876 12.541C636.706 12.8164 636.483 13.0801 636.208 13.332C635.938 13.5781 635.613 13.7803 635.232 13.9385C634.857 14.0967 634.424 14.1758 633.932 14.1758C633.311 14.1758 632.757 14.0527 632.271 13.8066C631.784 13.5547 631.403 13.2178 631.128 12.7959C630.853 12.3682 630.715 11.8848 630.715 11.3457C630.715 10.8418 630.809 10.3965 630.996 10.0098C631.189 9.61719 631.471 9.28906 631.84 9.02539C632.215 8.76172 632.672 8.5625 633.211 8.42773C633.75 8.28711 634.365 8.2168 635.057 8.2168H636.718Z" fill="#0A0A0A"/>
<path d="M661.437 132.5C661.437 188.557 615.993 234 559.937 234C503.88 234 458.437 188.557 458.437 132.5C458.437 76.4431 503.88 31 559.937 31C615.993 31 661.437 76.4431 661.437 132.5ZM472.437 132.5C472.437 177.346 515.091 220.555 559.937 220.555C604.782 220.555 648.937 177.346 648.937 132.5C648.937 87.6545 604.782 44.5 559.937 44.5C515.091 44.5 472.437 87.6545 472.437 132.5Z" fill="url(#paint2_linear_0_1)"/>
<path d="M261.16 22.5469V24.2959H254.366V22.5469H261.16ZM254.911 17.2031V30H252.705V17.2031H254.911ZM262.856 17.2031V30H260.659V17.2031H262.856ZM267.541 20.4902V30H265.414V20.4902H267.541ZM265.273 17.9941C265.273 17.6719 265.379 17.4053 265.59 17.1943C265.807 16.9775 266.105 16.8691 266.486 16.8691C266.861 16.8691 267.157 16.9775 267.374 17.1943C267.591 17.4053 267.699 17.6719 267.699 17.9941C267.699 18.3105 267.591 18.5742 267.374 18.7852C267.157 18.9961 266.861 19.1016 266.486 19.1016C266.105 19.1016 265.807 18.9961 265.59 18.7852C265.379 18.5742 265.273 18.3105 265.273 17.9941ZM271.988 22.3008V30H269.87V20.4902H271.892L271.988 22.3008ZM274.897 20.4287L274.88 22.3975C274.751 22.374 274.61 22.3564 274.458 22.3447C274.312 22.333 274.165 22.3271 274.019 22.3271C273.655 22.3271 273.336 22.3799 273.061 22.4854C272.785 22.585 272.554 22.7314 272.366 22.9248C272.185 23.1123 272.044 23.3408 271.944 23.6104C271.845 23.8799 271.786 24.1816 271.769 24.5156L271.285 24.5508C271.285 23.9531 271.344 23.3994 271.461 22.8896C271.578 22.3799 271.754 21.9316 271.988 21.5449C272.229 21.1582 272.527 20.8564 272.885 20.6396C273.248 20.4229 273.667 20.3145 274.142 20.3145C274.271 20.3145 274.408 20.3262 274.555 20.3496C274.707 20.373 274.821 20.3994 274.897 20.4287ZM278.492 20.4902V30H276.365V20.4902H278.492ZM276.225 17.9941C276.225 17.6719 276.33 17.4053 276.541 17.1943C276.758 16.9775 277.057 16.8691 277.438 16.8691C277.812 16.8691 278.108 16.9775 278.325 17.1943C278.542 17.4053 278.65 17.6719 278.65 17.9941C278.65 18.3105 278.542 18.5742 278.325 18.7852C278.108 18.9961 277.812 19.1016 277.438 19.1016C277.057 19.1016 276.758 18.9961 276.541 18.7852C276.33 18.5742 276.225 18.3105 276.225 17.9941ZM282.913 22.5205V30H280.795V20.4902H282.79L282.913 22.5205ZM282.535 24.8936L281.85 24.8848C281.855 24.2109 281.949 23.5928 282.131 23.0303C282.318 22.4678 282.576 21.9844 282.904 21.5801C283.238 21.1758 283.637 20.8652 284.1 20.6484C284.562 20.4258 285.078 20.3145 285.646 20.3145C286.104 20.3145 286.517 20.3789 286.886 20.5078C287.261 20.6309 287.58 20.833 287.844 21.1143C288.113 21.3955 288.318 21.7617 288.459 22.2129C288.6 22.6582 288.67 23.2061 288.67 23.8564V30H286.543V23.8477C286.543 23.3906 286.476 23.0303 286.341 22.7666C286.212 22.4971 286.021 22.3066 285.77 22.1953C285.523 22.0781 285.216 22.0195 284.847 22.0195C284.483 22.0195 284.158 22.0957 283.871 22.248C283.584 22.4004 283.341 22.6084 283.142 22.8721C282.948 23.1357 282.799 23.4404 282.693 23.7861C282.588 24.1318 282.535 24.501 282.535 24.8936ZM296.923 20.4902H298.848V29.7363C298.848 30.5918 298.666 31.3184 298.303 31.916C297.939 32.5137 297.433 32.9678 296.782 33.2783C296.132 33.5947 295.379 33.7529 294.523 33.7529C294.16 33.7529 293.756 33.7002 293.311 33.5947C292.871 33.4893 292.443 33.3193 292.027 33.085C291.617 32.8564 291.274 32.5547 290.999 32.1797L291.992 30.9316C292.332 31.3359 292.707 31.6318 293.117 31.8193C293.527 32.0068 293.958 32.1006 294.409 32.1006C294.896 32.1006 295.309 32.0098 295.648 31.8281C295.994 31.6523 296.261 31.3916 296.448 31.0459C296.636 30.7002 296.729 30.2783 296.729 29.7803V22.6436L296.923 20.4902ZM290.463 25.3506V25.166C290.463 24.4453 290.551 23.7891 290.727 23.1973C290.902 22.5996 291.154 22.0869 291.482 21.6592C291.811 21.2256 292.209 20.8945 292.678 20.666C293.146 20.4316 293.677 20.3145 294.269 20.3145C294.884 20.3145 295.408 20.4258 295.842 20.6484C296.281 20.8711 296.647 21.1904 296.94 21.6064C297.233 22.0166 297.462 22.5088 297.626 23.083C297.796 23.6514 297.922 24.2842 298.004 24.9814V25.5703C297.928 26.25 297.799 26.8711 297.617 27.4336C297.436 27.9961 297.195 28.4824 296.896 28.8926C296.598 29.3027 296.229 29.6191 295.789 29.8418C295.355 30.0645 294.843 30.1758 294.251 30.1758C293.671 30.1758 293.146 30.0557 292.678 29.8154C292.215 29.5752 291.816 29.2383 291.482 28.8047C291.154 28.3711 290.902 27.8613 290.727 27.2754C290.551 26.6836 290.463 26.042 290.463 25.3506ZM292.581 25.166V25.3506C292.581 25.7842 292.622 26.1885 292.704 26.5635C292.792 26.9385 292.924 27.2695 293.1 27.5566C293.281 27.8379 293.51 28.0605 293.785 28.2246C294.066 28.3828 294.397 28.4619 294.778 28.4619C295.276 28.4619 295.684 28.3564 296 28.1455C296.322 27.9346 296.568 27.6504 296.738 27.293C296.914 26.9297 297.037 26.5254 297.107 26.0801V24.4893C297.072 24.1436 296.999 23.8213 296.888 23.5225C296.782 23.2236 296.639 22.9629 296.457 22.7402C296.275 22.5117 296.047 22.3359 295.771 22.2129C295.496 22.084 295.171 22.0195 294.796 22.0195C294.415 22.0195 294.084 22.1016 293.803 22.2656C293.521 22.4297 293.29 22.6553 293.108 22.9424C292.933 23.2295 292.801 23.5635 292.713 23.9443C292.625 24.3252 292.581 24.7324 292.581 25.166ZM313.297 25.834H315.494C315.424 26.6719 315.189 27.4189 314.791 28.0752C314.393 28.7256 313.833 29.2383 313.112 29.6133C312.392 29.9883 311.516 30.1758 310.484 30.1758C309.693 30.1758 308.981 30.0352 308.349 29.7539C307.716 29.4668 307.174 29.0625 306.723 28.541C306.271 28.0137 305.926 27.3779 305.686 26.6338C305.451 25.8896 305.334 25.0576 305.334 24.1377V23.0742C305.334 22.1543 305.454 21.3223 305.694 20.5781C305.94 19.834 306.292 19.1982 306.749 18.6709C307.206 18.1377 307.754 17.7305 308.393 17.4492C309.037 17.168 309.761 17.0273 310.563 17.0273C311.583 17.0273 312.444 17.2148 313.147 17.5898C313.851 17.9648 314.396 18.4834 314.782 19.1455C315.175 19.8076 315.415 20.5664 315.503 21.4219H313.306C313.247 20.8711 313.118 20.3994 312.919 20.0068C312.726 19.6143 312.438 19.3154 312.058 19.1104C311.677 18.8994 311.179 18.7939 310.563 18.7939C310.06 18.7939 309.62 18.8877 309.245 19.0752C308.87 19.2627 308.557 19.5381 308.305 19.9014C308.053 20.2646 307.862 20.7129 307.733 21.2461C307.61 21.7734 307.549 22.377 307.549 23.0566V24.1377C307.549 24.7822 307.604 25.3682 307.716 25.8955C307.833 26.417 308.009 26.8652 308.243 27.2402C308.483 27.6152 308.788 27.9053 309.157 28.1104C309.526 28.3154 309.969 28.418 310.484 28.418C311.111 28.418 311.618 28.3184 312.005 28.1191C312.397 27.9199 312.693 27.6299 312.893 27.249C313.098 26.8623 313.232 26.3906 313.297 25.834ZM316.883 25.3506V25.1484C316.883 24.4629 316.982 23.8271 317.182 23.2412C317.381 22.6494 317.668 22.1367 318.043 21.7031C318.424 21.2637 318.887 20.9238 319.432 20.6836C319.982 20.4375 320.604 20.3145 321.295 20.3145C321.992 20.3145 322.613 20.4375 323.158 20.6836C323.709 20.9238 324.175 21.2637 324.556 21.7031C324.937 22.1367 325.227 22.6494 325.426 23.2412C325.625 23.8271 325.725 24.4629 325.725 25.1484V25.3506C325.725 26.0361 325.625 26.6719 325.426 27.2578C325.227 27.8438 324.937 28.3564 324.556 28.7959C324.175 29.2295 323.712 29.5693 323.167 29.8154C322.622 30.0557 322.004 30.1758 321.312 30.1758C320.615 30.1758 319.991 30.0557 319.44 29.8154C318.896 29.5693 318.433 29.2295 318.052 28.7959C317.671 28.3564 317.381 27.8438 317.182 27.2578C316.982 26.6719 316.883 26.0361 316.883 25.3506ZM319.001 25.1484V25.3506C319.001 25.7783 319.045 26.1826 319.133 26.5635C319.221 26.9443 319.358 27.2783 319.546 27.5654C319.733 27.8525 319.974 28.0781 320.267 28.2422C320.56 28.4062 320.908 28.4883 321.312 28.4883C321.705 28.4883 322.045 28.4062 322.332 28.2422C322.625 28.0781 322.865 27.8525 323.053 27.5654C323.24 27.2783 323.378 26.9443 323.466 26.5635C323.56 26.1826 323.606 25.7783 323.606 25.3506V25.1484C323.606 24.7266 323.56 24.3281 323.466 23.9531C323.378 23.5723 323.237 23.2354 323.044 22.9424C322.856 22.6494 322.616 22.4209 322.323 22.2568C322.036 22.0869 321.693 22.002 321.295 22.002C320.896 22.002 320.551 22.0869 320.258 22.2568C319.971 22.4209 319.733 22.6494 319.546 22.9424C319.358 23.2354 319.221 23.5723 319.133 23.9531C319.045 24.3281 319.001 24.7266 319.001 25.1484ZM329.601 22.5205V30H327.482V20.4902H329.478L329.601 22.5205ZM329.223 24.8936L328.537 24.8848C328.543 24.2109 328.637 23.5928 328.818 23.0303C329.006 22.4678 329.264 21.9844 329.592 21.5801C329.926 21.1758 330.324 20.8652 330.787 20.6484C331.25 20.4258 331.766 20.3145 332.334 20.3145C332.791 20.3145 333.204 20.3789 333.573 20.5078C333.948 20.6309 334.268 20.833 334.531 21.1143C334.801 21.3955 335.006 21.7617 335.146 22.2129C335.287 22.6582 335.357 23.2061 335.357 23.8564V30H333.23V23.8477C333.23 23.3906 333.163 23.0303 333.028 22.7666C332.899 22.4971 332.709 22.3066 332.457 22.1953C332.211 22.0781 331.903 22.0195 331.534 22.0195C331.171 22.0195 330.846 22.0957 330.559 22.248C330.271 22.4004 330.028 22.6084 329.829 22.8721C329.636 23.1357 329.486 23.4404 329.381 23.7861C329.275 24.1318 329.223 24.501 329.223 24.8936ZM341.879 20.4902V22.0371H336.518V20.4902H341.879ZM338.064 18.1611H340.183V27.3721C340.183 27.665 340.224 27.8906 340.306 28.0488C340.394 28.2012 340.514 28.3037 340.666 28.3564C340.818 28.4092 340.997 28.4355 341.202 28.4355C341.349 28.4355 341.489 28.4268 341.624 28.4092C341.759 28.3916 341.867 28.374 341.949 28.3564L341.958 29.9736C341.782 30.0264 341.577 30.0732 341.343 30.1143C341.114 30.1553 340.851 30.1758 340.552 30.1758C340.065 30.1758 339.635 30.0908 339.26 29.9209C338.885 29.7451 338.592 29.4609 338.381 29.0684C338.17 28.6758 338.064 28.1543 338.064 27.5039V18.1611ZM347.706 30.1758C347.003 30.1758 346.367 30.0615 345.799 29.833C345.236 29.5986 344.756 29.2734 344.357 28.8574C343.965 28.4414 343.663 27.9521 343.452 27.3896C343.241 26.8271 343.136 26.2207 343.136 25.5703V25.2188C343.136 24.4746 343.244 23.8008 343.461 23.1973C343.678 22.5938 343.979 22.0781 344.366 21.6504C344.753 21.2168 345.21 20.8857 345.737 20.6572C346.265 20.4287 346.836 20.3145 347.451 20.3145C348.131 20.3145 348.726 20.4287 349.235 20.6572C349.745 20.8857 350.167 21.208 350.501 21.624C350.841 22.0342 351.093 22.5234 351.257 23.0918C351.427 23.6602 351.512 24.2871 351.512 24.9727V25.8779H344.164V24.3574H349.42V24.1904C349.408 23.8096 349.332 23.4521 349.191 23.1182C349.057 22.7842 348.849 22.5146 348.567 22.3096C348.286 22.1045 347.911 22.002 347.442 22.002C347.091 22.002 346.777 22.0781 346.502 22.2305C346.232 22.377 346.007 22.5908 345.825 22.8721C345.644 23.1533 345.503 23.4932 345.403 23.8916C345.31 24.2842 345.263 24.7266 345.263 25.2188V25.5703C345.263 25.9863 345.318 26.373 345.43 26.7305C345.547 27.082 345.717 27.3896 345.939 27.6533C346.162 27.917 346.432 28.125 346.748 28.2773C347.064 28.4238 347.425 28.4971 347.829 28.4971C348.339 28.4971 348.793 28.3945 349.191 28.1895C349.59 27.9844 349.936 27.6943 350.229 27.3193L351.345 28.4004C351.14 28.6992 350.873 28.9863 350.545 29.2617C350.217 29.5312 349.815 29.751 349.341 29.9209C348.872 30.0908 348.327 30.1758 347.706 30.1758ZM358.499 27.4248C358.499 27.2139 358.446 27.0234 358.341 26.8535C358.235 26.6777 358.033 26.5195 357.734 26.3789C357.441 26.2383 357.008 26.1094 356.434 25.9922C355.93 25.8809 355.467 25.749 355.045 25.5967C354.629 25.4385 354.271 25.248 353.973 25.0254C353.674 24.8027 353.442 24.5391 353.278 24.2344C353.114 23.9297 353.032 23.5781 353.032 23.1797C353.032 22.793 353.117 22.4268 353.287 22.0811C353.457 21.7354 353.7 21.4307 354.017 21.167C354.333 20.9033 354.717 20.6953 355.168 20.543C355.625 20.3906 356.135 20.3145 356.697 20.3145C357.494 20.3145 358.177 20.4492 358.745 20.7188C359.319 20.9824 359.759 21.3428 360.063 21.7998C360.368 22.251 360.521 22.7607 360.521 23.3291H358.402C358.402 23.0771 358.338 22.8428 358.209 22.626C358.086 22.4033 357.898 22.2246 357.646 22.0898C357.395 21.9492 357.078 21.8789 356.697 21.8789C356.334 21.8789 356.032 21.9375 355.792 22.0547C355.558 22.166 355.382 22.3125 355.265 22.4941C355.153 22.6758 355.098 22.875 355.098 23.0918C355.098 23.25 355.127 23.3936 355.186 23.5225C355.25 23.6455 355.355 23.7598 355.502 23.8652C355.648 23.9648 355.848 24.0586 356.1 24.1465C356.357 24.2344 356.68 24.3193 357.066 24.4014C357.793 24.5537 358.417 24.75 358.938 24.9902C359.466 25.2246 359.87 25.5293 360.151 25.9043C360.433 26.2734 360.573 26.7422 360.573 27.3105C360.573 27.7324 360.482 28.1191 360.301 28.4707C360.125 28.8164 359.867 29.1182 359.527 29.376C359.188 29.6279 358.78 29.8242 358.306 29.9648C357.837 30.1055 357.31 30.1758 356.724 30.1758C355.862 30.1758 355.133 30.0234 354.535 29.7188C353.938 29.4082 353.483 29.0127 353.173 28.5322C352.868 28.0459 352.716 27.542 352.716 27.0205H354.764C354.787 27.4131 354.896 27.7266 355.089 27.9609C355.288 28.1895 355.534 28.3564 355.827 28.4619C356.126 28.5615 356.434 28.6113 356.75 28.6113C357.131 28.6113 357.45 28.5615 357.708 28.4619C357.966 28.3564 358.162 28.2158 358.297 28.04C358.432 27.8584 358.499 27.6533 358.499 27.4248ZM366.787 20.4902V22.0371H361.426V20.4902H366.787ZM362.973 18.1611H365.091V27.3721C365.091 27.665 365.132 27.8906 365.214 28.0488C365.302 28.2012 365.422 28.3037 365.574 28.3564C365.727 28.4092 365.905 28.4355 366.11 28.4355C366.257 28.4355 366.397 28.4268 366.532 28.4092C366.667 28.3916 366.775 28.374 366.857 28.3564L366.866 29.9736C366.69 30.0264 366.485 30.0732 366.251 30.1143C366.022 30.1553 365.759 30.1758 365.46 30.1758C364.974 30.1758 364.543 30.0908 364.168 29.9209C363.793 29.7451 363.5 29.4609 363.289 29.0684C363.078 28.6758 362.973 28.1543 362.973 27.5039V18.1611ZM373.757 27.4248C373.757 27.2139 373.704 27.0234 373.599 26.8535C373.493 26.6777 373.291 26.5195 372.992 26.3789C372.699 26.2383 372.266 26.1094 371.691 25.9922C371.188 25.8809 370.725 25.749 370.303 25.5967C369.887 25.4385 369.529 25.248 369.23 25.0254C368.932 24.8027 368.7 24.5391 368.536 24.2344C368.372 23.9297 368.29 23.5781 368.29 23.1797C368.29 22.793 368.375 22.4268 368.545 22.0811C368.715 21.7354 368.958 21.4307 369.274 21.167C369.591 20.9033 369.975 20.6953 370.426 20.543C370.883 20.3906 371.393 20.3145 371.955 20.3145C372.752 20.3145 373.435 20.4492 374.003 20.7188C374.577 20.9824 375.017 21.3428 375.321 21.7998C375.626 22.251 375.778 22.7607 375.778 23.3291H373.66C373.66 23.0771 373.596 22.8428 373.467 22.626C373.344 22.4033 373.156 22.2246 372.904 22.0898C372.652 21.9492 372.336 21.8789 371.955 21.8789C371.592 21.8789 371.29 21.9375 371.05 22.0547C370.815 22.166 370.64 22.3125 370.522 22.4941C370.411 22.6758 370.355 22.875 370.355 23.0918C370.355 23.25 370.385 23.3936 370.443 23.5225C370.508 23.6455 370.613 23.7598 370.76 23.8652C370.906 23.9648 371.105 24.0586 371.357 24.1465C371.615 24.2344 371.938 24.3193 372.324 24.4014C373.051 24.5537 373.675 24.75 374.196 24.9902C374.724 25.2246 375.128 25.5293 375.409 25.9043C375.69 26.2734 375.831 26.7422 375.831 27.3105C375.831 27.7324 375.74 28.1191 375.559 28.4707C375.383 28.8164 375.125 29.1182 374.785 29.376C374.445 29.6279 374.038 29.8242 373.563 29.9648C373.095 30.1055 372.567 30.1758 371.981 30.1758C371.12 30.1758 370.391 30.0234 369.793 29.7188C369.195 29.4082 368.741 29.0127 368.431 28.5322C368.126 28.0459 367.974 27.542 367.974 27.0205H370.021C370.045 27.4131 370.153 27.7266 370.347 27.9609C370.546 28.1895 370.792 28.3564 371.085 28.4619C371.384 28.5615 371.691 28.6113 372.008 28.6113C372.389 28.6113 372.708 28.5615 372.966 28.4619C373.224 28.3564 373.42 28.2158 373.555 28.04C373.689 27.8584 373.757 27.6533 373.757 27.4248Z" fill="#0A0A0A"/>
<defs>
<linearGradient id="paint0_linear_0_1" x1="231.832" y1="-35.4061" x2="394.223" y2="-29.6923" gradientUnits="userSpaceOnUse">
<stop stop-color="#7A0285"/>
<stop offset="1" stop-color="#310058"/>
</linearGradient>
<linearGradient id="paint1_linear_0_1" x1="494" y1="179.5" x2="618.5" y2="90" gradientUnits="userSpaceOnUse">
<stop stop-color="#CA58FF"/>
<stop offset="1" stop-color="#39015D"/>
</linearGradient>
<linearGradient id="paint2_linear_0_1" x1="507.497" y1="220.199" x2="606.997" y2="56.6992" gradientUnits="userSpaceOnUse">
<stop stop-color="#F90000"/>
<stop offset="0.525907" stop-color="white"/>
<stop offset="1" stop-color="#0A2A64"/>
</linearGradient>
</defs>
</svg>
