<svg width="57" height="45" viewBox="0 0 57 45" fill="none" xmlns="http://www.w3.org/2000/svg">
<path d="M55.498 7.72262C55.2571 6.78838 54.7976 5.9248 54.1572 5.20315C53.5169 4.48151 52.7141 3.92249 51.8151 3.57222C43.1139 0.228543 29.2565 0.256437 28.5 0.260403C27.7439 0.254329 13.8864 0.228411 5.18501 3.57222C4.28608 3.92247 3.48332 4.48146 2.84297 5.20306C2.20261 5.92465 1.74303 6.78818 1.50213 7.72237C0.845293 10.2438 0.0625 14.8544 0.0625 22.5006C0.0625 30.1467 0.845293 34.7573 1.502 37.2787C1.74286 38.2129 2.20243 39.0765 2.84278 39.7981C3.48314 40.5198 4.28592 41.0788 5.18489 41.4291C13.5146 44.63 26.5693 44.7414 28.3328 44.7414C28.4903 44.7415 28.5097 44.7415 28.6672 44.7414C30.4321 44.7412 43.4858 44.6298 51.815 41.4291C52.7139 41.0788 53.5167 40.5198 54.157 39.7982C54.7974 39.0766 55.257 38.2131 55.4979 37.2789C56.1547 34.7575 56.9375 30.1468 56.9375 22.5006C56.9375 14.8546 56.1547 10.244 55.498 7.72262ZM37.1884 23.3457L25.0009 31.4707C24.8479 31.5727 24.6701 31.6312 24.4865 31.6401C24.3029 31.649 24.1203 31.6079 23.9582 31.5211C23.7961 31.4344 23.6606 31.3053 23.5662 31.1476C23.4717 30.9899 23.4218 30.8095 23.4219 30.6256V14.3756C23.4218 14.1918 23.4717 14.0114 23.5662 13.8537C23.6606 13.696 23.7961 13.5669 23.9582 13.4801C24.1203 13.3934 24.3029 13.3523 24.4865 13.3612C24.6701 13.37 24.8479 13.4286 25.0009 13.5306L37.1884 21.6556C37.3275 21.7483 37.4415 21.874 37.5204 22.0214C37.5993 22.1688 37.6406 22.3334 37.6406 22.5006C37.6406 22.6678 37.5993 22.8324 37.5204 22.9799C37.4415 23.1273 37.3275 23.2529 37.1884 23.3457Z" fill="#FF0000"/>
</svg>
